<svg width="249" height="205" viewBox="0 0 249 205" fill="none" xmlns="http://www.w3.org/2000/svg">
<path d="M24.0599 202.85C24.7054 203.369 25.6496 203.267 26.1689 202.622L34.6308 192.103C35.1501 191.457 35.0477 190.513 34.4023 189.994C33.7568 189.475 32.8126 189.577 32.2933 190.222L24.7716 199.572L15.4215 192.051C14.776 191.531 13.8318 191.634 13.3125 192.279C12.7933 192.925 12.8956 193.869 13.5411 194.388L24.0599 202.85ZM248.294 2.01417C247.623 2.10708 246.954 2.20038 246.286 2.29409L246.702 5.265C247.369 5.17155 248.036 5.07849 248.706 4.98583L248.294 2.01417ZM242.296 2.86113C240.973 3.05177 239.655 3.24403 238.344 3.43795L238.783 6.40568C240.09 6.21232 241.404 6.0206 242.724 5.8305L242.296 2.86113ZM234.428 4.02473C233.1 4.22633 231.779 4.4297 230.464 4.63487L230.927 7.599C232.238 7.39447 233.555 7.19172 234.878 6.99072L234.428 4.02473ZM226.489 5.26387C225.17 5.4754 223.858 5.68881 222.552 5.90413L223.04 8.86414C224.342 8.64955 225.649 8.43685 226.964 8.226L226.489 5.26387ZM218.655 6.55584C217.322 6.78195 215.995 7.01013 214.676 7.24041L215.192 10.1957C216.506 9.9663 217.828 9.73894 219.157 9.51362L218.655 6.55584ZM210.722 7.94052C209.411 8.17603 208.107 8.4137 206.811 8.65357L207.356 11.6035C208.648 11.3646 209.947 11.1279 211.253 10.8932L210.722 7.94052ZM202.903 9.38699C201.574 9.64028 200.251 9.89597 198.937 10.1541L199.515 13.0979C200.824 12.8409 202.14 12.5863 203.465 12.334L202.903 9.38699ZM195.015 10.9359C193.716 11.1989 192.423 11.4645 191.139 11.7326L191.752 14.6693C193.03 14.4025 194.317 14.1381 195.61 13.8763L195.015 10.9359ZM187.196 12.5683C185.88 12.8518 184.571 13.138 183.271 13.4271L183.922 16.3556C185.216 16.068 186.518 15.7832 187.828 15.5011L187.196 12.5683ZM179.394 14.3028C178.089 14.6023 176.792 14.9047 175.504 15.2101L176.196 18.1292C177.477 17.8255 178.767 17.5247 180.065 17.2268L179.394 14.3028ZM171.582 16.1554C170.283 16.4737 168.993 16.7952 167.711 17.1199L168.448 20.028C169.722 19.7052 171.004 19.3856 172.296 19.0692L171.582 16.1554ZM163.866 18.1107C162.553 18.4546 161.25 18.8021 159.956 19.1532L160.742 22.0486C162.027 21.6998 163.322 21.3545 164.626 21.0127L163.866 18.1107ZM156.102 20.2174C154.823 20.5767 153.554 20.9396 152.294 21.3063L153.132 24.1868C154.383 23.8227 155.644 23.4624 156.914 23.1056L156.102 20.2174ZM148.408 22.458C147.122 22.846 145.847 23.2381 144.581 23.6343L145.478 26.4972C146.733 26.1042 147.999 25.7151 149.275 25.3301L148.408 22.458ZM140.806 24.8383C139.512 25.2585 138.229 25.6833 136.957 26.1127L137.916 28.9552C139.177 28.5295 140.449 28.1083 141.732 27.6916L140.806 24.8383ZM133.172 27.4149C131.913 27.8565 130.664 28.3029 129.427 28.7541L130.454 31.5726C131.68 31.1257 132.917 30.6835 134.165 30.2458L133.172 27.4149ZM125.631 30.1663C124.378 30.6422 123.135 31.1233 121.905 31.6098L123.008 34.3997C124.225 33.9183 125.455 33.4421 126.696 32.971L125.631 30.1663ZM118.194 33.1072C116.941 33.6234 115.7 34.1455 114.471 34.6735L115.656 37.4297C116.87 36.9078 118.097 36.3916 119.336 35.881L118.194 33.1072ZM110.823 36.2753C109.587 36.8294 108.365 37.3898 107.156 37.9566L108.429 40.673C109.623 40.1134 110.83 39.5599 112.051 39.0126L110.823 36.2753ZM103.529 39.695C102.328 40.2837 101.141 40.8791 99.9666 41.4813L101.336 44.1506C102.493 43.5568 103.665 42.9696 104.849 42.3888L103.529 39.695ZM96.3768 43.3664C95.1944 44.0021 94.0262 44.6452 92.8721 45.2959L94.3455 47.9092C95.4818 47.2685 96.6324 46.6351 97.7975 46.0087L96.3768 43.3664ZM89.3814 47.3125C88.2184 48.0011 87.0705 48.6978 85.9376 49.4028L87.5228 51.9498C88.6365 51.2567 89.7655 50.5715 90.9098 49.894L89.3814 47.3125ZM82.5631 51.557C81.4265 52.3012 80.3059 53.0544 79.2014 53.8167L80.9055 56.2857C81.9896 55.5375 83.09 54.7979 84.2065 54.0668L82.5631 51.557ZM75.936 56.131C74.8379 56.9304 73.7566 57.7394 72.6921 58.5582L74.5212 60.9361C75.5644 60.1336 76.6245 59.3405 77.7015 58.5565L75.936 56.131ZM69.5378 61.0535C68.4891 61.9068 67.4577 62.7705 66.4437 63.6447L68.4026 65.9169C69.3947 65.0615 70.4043 64.2161 71.4313 63.3805L69.5378 61.0535ZM63.4257 66.3245C62.4309 67.2346 61.4539 68.1557 60.4949 69.088L62.586 71.2391C63.5231 70.3282 64.4779 69.4279 65.4507 68.5381L63.4257 66.3245ZM57.6391 71.9522C56.7033 72.9206 55.7861 73.9006 54.8873 74.8924L57.1103 76.907C57.9874 75.939 58.8828 74.9823 59.7965 74.0367L57.6391 71.9522ZM52.2184 77.9361C51.3476 78.9628 50.4955 80.0018 49.6624 81.0531L52.0135 82.9165C52.8259 81.8914 53.6569 80.8781 54.5063 79.8765L52.2184 77.9361ZM47.203 84.2663C46.4023 85.35 45.6207 86.4463 44.8582 87.5555L47.3304 89.255C48.0735 88.174 48.8353 87.1054 49.6158 86.0491L47.203 84.2663ZM42.6269 90.9231C41.9022 92.0587 41.1966 93.2072 40.5101 94.3688L43.0928 95.8952C43.7619 94.763 44.4495 93.6437 45.1558 92.5371L42.6269 90.9231ZM38.5161 97.8778C37.8715 99.0586 37.2456 100.253 36.6386 101.46L39.3189 102.807C39.9107 101.63 40.5209 100.466 41.1493 99.3153L38.5161 97.8778ZM34.886 105.095C34.3234 106.314 33.779 107.545 33.253 108.79L36.0164 109.958C36.5297 108.743 37.0608 107.541 37.6096 106.353L34.886 105.095ZM31.7403 112.536C31.2596 113.784 30.7965 115.045 30.351 116.319L33.1827 117.309C33.618 116.065 34.0704 114.833 34.5398 113.615L31.7403 112.536ZM29.072 120.163C28.6712 121.432 28.2871 122.714 27.9197 124.008L30.8057 124.827C31.1651 123.561 31.5408 122.308 31.9327 121.067L29.072 120.163ZM26.8677 127.928C26.5421 129.214 26.2324 130.513 25.9385 131.823L28.8658 132.48C29.1538 131.195 29.4572 129.924 29.776 128.664L26.8677 127.928ZM25.1066 135.779C24.8496 137.086 24.6077 138.405 24.381 139.736L27.3383 140.24C27.5609 138.934 27.7982 137.639 28.0503 136.357L25.1066 135.779ZM23.7547 143.705C23.5614 145.034 23.3826 146.374 23.2183 147.726L26.1963 148.088C26.3579 146.759 26.5336 145.442 26.7234 144.137L23.7547 143.705ZM22.7812 151.689C22.6491 153.021 22.5305 154.364 22.4254 155.719L25.4165 155.951C25.5199 154.617 25.6366 153.296 25.7666 151.985L22.7812 151.689ZM22.1562 159.719C22.0804 161.043 22.0172 162.378 21.9664 163.723L24.9642 163.836C25.0143 162.51 25.0767 161.195 25.1513 159.89L22.1562 159.719ZM21.8513 167.789C21.8263 169.101 21.8129 170.423 21.8108 171.755L24.8108 171.759C24.8128 170.445 24.8261 169.14 24.8507 167.846L21.8513 167.789ZM21.839 175.78C21.8595 177.116 21.8912 178.461 21.934 179.816L24.9325 179.721C24.8902 178.382 24.8589 177.053 24.8386 175.734L21.839 175.78ZM22.09 183.789C22.1525 185.123 22.2254 186.466 22.3088 187.819L25.3031 187.634C25.2206 186.296 25.1485 184.968 25.0868 183.649L22.09 183.789ZM22.5841 191.826C22.6835 193.14 22.7925 194.462 22.9111 195.793L25.8992 195.527C25.7819 194.209 25.674 192.9 25.5755 191.6L22.5841 191.826ZM23.2953 199.813C23.3641 200.487 23.4353 201.164 23.5088 201.843L26.4914 201.52C26.4185 200.847 26.348 200.177 26.2798 199.508L23.2953 199.813ZM23.1197 204.019C24.4107 205.057 26.2991 204.853 27.3376 203.562L44.2615 182.524C45.3 181.233 45.0954 179.345 43.8044 178.306C42.5134 177.268 40.625 177.472 39.5865 178.763L24.543 197.463L5.8429 182.42C4.55192 181.381 2.66347 181.586 1.62495 182.877C0.586409 184.168 0.791056 186.057 2.08204 187.095L23.1197 204.019ZM248.089 0.528346C247.417 0.621375 246.746 0.714803 246.077 0.808632L246.911 6.75045C247.576 6.65713 248.243 6.5642 248.911 6.47165L248.089 0.528346ZM242.082 1.37645C240.757 1.56735 239.438 1.75989 238.124 1.95409L239.002 7.88954C240.308 7.69646 241.62 7.50502 242.938 7.31518L242.082 1.37645ZM234.203 2.54173C232.873 2.74363 231.55 2.94731 230.233 3.1528L231.158 9.08106C232.467 8.87686 233.782 8.67442 235.104 8.47372L234.203 2.54173ZM226.251 3.7828C224.93 3.99468 223.616 4.20844 222.308 4.42412L223.284 10.3442C224.583 10.1299 225.889 9.91757 227.201 9.70707L226.251 3.7828ZM218.404 5.07696C217.069 5.30346 215.74 5.53205 214.418 5.76275L215.45 11.6734C216.762 11.4444 218.081 11.2174 219.407 10.9925L218.404 5.07696ZM210.457 6.46415C209.144 6.70011 207.837 6.93824 206.538 7.17858L207.629 13.0785C208.918 12.8401 210.215 12.6038 211.518 12.3696L210.457 6.46415ZM202.623 7.91348C201.29 8.1673 199.965 8.42353 198.648 8.68221L199.804 14.5698C201.11 14.3133 202.424 14.0592 203.745 13.8075L202.623 7.91348ZM194.718 9.46569C193.415 9.72934 192.12 9.99549 190.832 10.2642L192.058 16.1377C193.334 15.8715 194.617 15.6077 195.908 15.3464L194.718 9.46569ZM186.881 11.1019C185.561 11.3861 184.249 11.6731 182.945 11.9629L184.247 17.8199C185.538 17.533 186.837 17.2489 188.144 16.9674L186.881 11.1019ZM179.058 12.8408C177.75 13.1411 176.45 13.4443 175.158 13.7505L176.542 19.5887C177.819 19.2858 179.106 18.9859 180.4 18.6888L179.058 12.8408ZM171.225 14.6985C169.922 15.0177 168.628 15.3401 167.343 15.6658L168.817 21.482C170.086 21.1602 171.365 20.8416 172.653 20.5261L171.225 14.6985ZM163.486 16.6597C162.169 17.0047 160.862 17.3533 159.563 17.7056L161.135 23.4962C162.416 23.1486 163.706 22.8044 165.007 22.4637L163.486 16.6597ZM155.696 18.7733C154.413 19.1338 153.139 19.498 151.875 19.866L153.551 25.627C154.798 25.2643 156.054 24.9052 157.319 24.5496L155.696 18.7733ZM147.974 21.022C146.684 21.4114 145.404 21.805 144.133 22.2028L145.926 27.9287C147.176 27.5372 148.437 27.1497 149.708 26.7661L147.974 21.022ZM140.342 23.4117C139.043 23.8337 137.755 24.2602 136.477 24.6915L138.396 30.3765C139.651 29.9526 140.918 29.5332 142.196 29.1182L140.342 23.4117ZM132.675 25.9994C131.41 26.4431 130.156 26.8915 128.913 27.3449L130.968 32.9819C132.188 32.5371 133.419 32.0969 134.661 31.6613L132.675 25.9994ZM125.099 28.7639C123.839 29.2422 122.59 29.7258 121.353 30.2148L123.559 35.7947C124.77 35.3159 125.993 34.8421 127.228 34.3733L125.099 28.7639ZM117.622 31.7202C116.362 32.2393 115.114 32.7643 113.879 33.2954L116.248 38.8078C117.455 38.289 118.675 37.7757 119.908 37.268L117.622 31.7202ZM110.209 34.9067C108.966 35.4641 107.736 36.028 106.519 36.5984L109.066 42.0312C110.252 41.4752 111.451 40.9252 112.664 40.3812L110.209 34.9067ZM102.869 38.3482C101.66 38.9407 100.464 39.5402 99.282 40.1466L102.02 45.4853C103.17 44.8957 104.333 44.3125 105.51 43.7357L102.869 38.3482ZM95.6665 42.0452C94.4754 42.6856 93.2984 43.3336 92.1355 43.9892L95.0821 49.2158C96.2095 48.5802 97.3514 47.9516 98.5078 47.3298L95.6665 42.0452ZM88.6172 46.0218C87.4448 46.7159 86.2874 47.4183 85.145 48.1293L88.3154 53.2233C89.4195 52.5362 90.539 51.8567 91.6739 51.1848L88.6172 46.0218ZM81.7414 50.3021C80.5947 51.0529 79.4641 51.8129 78.3494 52.5822L81.7575 57.5203C82.8315 56.779 83.9217 56.0462 85.0282 55.3217L81.7414 50.3021ZM75.0532 54.9183C73.9446 55.7253 72.8527 56.5423 71.7775 57.3693L75.4358 62.125C76.4684 61.3308 77.5178 60.5455 78.5843 59.7693L75.0532 54.9183ZM68.5911 59.89C67.5315 60.7522 66.4892 61.625 65.4643 62.5086L69.382 67.053C70.3633 66.207 71.3619 65.3707 72.378 64.544L68.5911 59.89ZM62.4133 65.2178C61.4073 66.138 60.4194 67.0695 59.4494 68.0124L63.6316 72.3147C64.5576 71.4144 65.5014 70.5246 66.4631 69.6448L62.4133 65.2178ZM56.5603 70.9099C55.6136 71.8897 54.6854 72.8814 53.7758 73.8852L58.2218 77.9142C59.0881 76.9582 59.9726 76.0132 60.8752 75.079L56.5603 70.9099ZM51.0745 76.9658C50.1929 78.0052 49.3303 79.057 48.4868 80.1215L53.1891 83.8481C53.9911 82.8361 54.8115 81.8358 55.6503 80.8468L51.0745 76.9658ZM45.9966 83.3749C45.1858 84.4723 44.3943 85.5825 43.6221 86.7057L48.5665 90.1048C49.2999 89.0379 50.0519 87.9831 50.8223 86.9404L45.9966 83.3749ZM41.3625 90.1161C40.6286 91.2661 39.914 92.4292 39.2187 93.6056L44.3841 96.6584C45.0445 95.541 45.7232 94.4362 46.4202 93.344L41.3625 90.1161ZM37.1996 97.159C36.5468 98.3547 35.9131 99.5636 35.2985 100.786L40.659 103.481C41.2433 102.319 41.8455 101.17 42.4658 100.034L37.1996 97.159ZM33.5242 104.466C32.9546 105.7 32.4037 106.946 31.8714 108.206L37.3981 110.541C37.9051 109.342 38.4295 108.155 38.9715 106.982L33.5242 104.466ZM30.3406 111.997C29.8542 113.26 29.3857 114.535 28.9351 115.823L34.5986 117.804C35.0288 116.575 35.4758 115.358 35.9395 114.154L30.3406 111.997ZM27.6417 119.712C27.2364 120.995 26.8481 122.29 26.4767 123.598L32.2487 125.237C32.6041 123.985 32.9756 122.745 33.363 121.519L27.6417 119.712ZM25.4136 127.56C25.0846 128.86 24.7717 130.171 24.4748 131.495L30.3294 132.808C30.6145 131.537 30.9147 130.278 31.2301 129.032L25.4136 127.56ZM23.6348 135.489C23.3753 136.809 23.1311 138.141 22.9023 139.484L28.817 140.492C29.0375 139.198 29.2725 137.916 29.5221 136.647L23.6348 135.489ZM22.2703 143.489C22.0753 144.83 21.8949 146.182 21.7292 147.545L27.6854 148.269C27.8455 146.952 28.0197 145.646 28.2078 144.353L22.2703 143.489ZM21.2886 151.541C21.1554 152.884 21.0358 154.238 20.9299 155.603L26.9119 156.067C27.0146 154.744 27.1304 153.433 27.2593 152.133L21.2886 151.541ZM20.6586 159.633C20.5823 160.967 20.5186 162.312 20.4674 163.666L26.4632 163.893C26.5129 162.576 26.5748 161.271 26.6488 159.976L20.6586 159.633ZM20.3515 167.761C20.3264 169.082 20.3129 170.412 20.3108 171.753L26.3108 171.762C26.3128 170.456 26.326 169.16 26.3504 167.875L20.3515 167.761ZM20.3392 175.803C20.3598 177.147 20.3917 178.5 20.4348 179.863L26.4318 179.674C26.3897 178.343 26.3586 177.022 26.3384 175.711L20.3392 175.803ZM20.5917 183.86C20.6545 185.201 20.7278 186.551 20.8116 187.911L26.8003 187.542C26.7182 186.211 26.6465 184.89 26.5851 183.579L20.5917 183.86ZM21.0884 191.939C21.1883 193.26 21.2979 194.589 21.417 195.926L27.3933 195.394C27.2765 194.082 27.1692 192.78 27.0713 191.486L21.0884 191.939ZM21.803 199.965C21.8722 200.643 21.9437 201.323 22.0176 202.005L27.9827 201.358C27.9101 200.689 27.8399 200.021 27.772 199.356L21.803 199.965Z" fill="#F49097"/>
</svg>
