<svg width="266" height="236" viewBox="0 0 266 236" fill="none" xmlns="http://www.w3.org/2000/svg">
<path d="M216.217 233.202C216.764 233.825 217.711 233.886 218.334 233.339L228.473 224.425C229.095 223.878 229.156 222.931 228.609 222.308C228.062 221.686 227.114 221.625 226.492 222.172L217.479 230.095L209.557 221.082C209.01 220.46 208.062 220.399 207.44 220.946C206.818 221.493 206.757 222.441 207.304 223.063L216.217 233.202ZM1.18501 13.17C2.22784 13.0403 3.26674 12.9124 4.30172 12.7862L3.93853 9.80825C2.90125 9.93476 1.86006 10.063 0.814952 10.1929L1.18501 13.17ZM10.4646 12.0491C12.5033 11.8102 14.5264 11.578 16.5341 11.3525L16.1992 8.37125C14.1867 8.5973 12.1588 8.83006 10.1154 9.06953L10.4646 12.0491ZM22.5107 10.6959C24.4875 10.4837 26.4489 10.2781 28.3951 10.0791L28.0899 7.09467C26.1386 7.29421 24.1722 7.50032 22.1905 7.71307L22.5107 10.6959ZM34.1879 9.50169C36.1962 9.30677 38.1879 9.11901 40.163 8.93834L39.8898 5.95081C37.909 6.13199 35.9118 6.32027 33.8981 6.51572L34.1879 9.50169ZM46.3461 8.39127C48.3889 8.21673 50.4135 8.04998 52.4201 7.89095L52.183 4.90033C50.1703 5.05985 48.1395 5.2271 46.0907 5.40216L46.3461 8.39127ZM58.3858 7.43693C60.3564 7.29326 62.3091 7.15723 64.244 7.02877L64.0453 4.03536C62.1038 4.16425 60.1446 4.30073 58.1676 4.44487L58.3858 7.43693ZM69.9957 6.66602C72.1016 6.54031 74.1858 6.42381 76.2486 6.31643L76.0926 3.32048C74.0221 3.42827 71.9303 3.5452 69.8169 3.67135L69.9957 6.66602ZM82.3731 6.02148C84.3932 5.93221 86.3921 5.85195 88.3699 5.7806L88.2617 2.78255C86.2757 2.85419 84.2687 2.93478 82.2406 3.0244L82.3731 6.02148ZM94.2402 5.59318C96.191 5.53913 98.1207 5.49403 100.029 5.45778L99.9723 2.45832C98.0548 2.49474 96.1165 2.54005 94.1571 2.59433L94.2402 5.59318ZM106.282 5.36982C108.34 5.35121 110.373 5.34326 112.381 5.34584L112.385 2.34584C110.367 2.34326 108.323 2.35124 106.254 2.36994L106.282 5.36982ZM118.33 5.385C120.288 5.40848 122.221 5.44235 124.13 5.48646L124.199 2.48725C122.279 2.44289 120.335 2.40883 118.366 2.38522L118.33 5.385ZM130.207 5.66431C132.284 5.73817 134.331 5.82466 136.347 5.92359L136.494 2.9272C134.464 2.82759 132.404 2.74053 130.314 2.66621L130.207 5.66431ZM142.306 6.25749C144.262 6.3811 146.189 6.51694 148.086 6.66482L148.319 3.67389C146.407 3.52484 144.466 3.38797 142.495 3.26346L142.306 6.25749ZM154.16 7.18852C156.221 7.38386 158.246 7.59413 160.235 7.81905L160.572 4.83806C158.565 4.61104 156.522 4.3989 154.443 4.2019L154.16 7.18852ZM166.094 8.53748C168.053 8.79686 169.974 9.07123 171.859 9.36027L172.313 6.39494C170.408 6.10271 168.466 5.82545 166.488 5.56344L166.094 8.53748ZM177.971 10.3712C179.964 10.7259 181.913 11.0979 183.82 11.4871L184.42 8.5477C182.488 8.15335 180.514 7.77654 178.496 7.41763L177.971 10.3712ZM189.445 12.7134C191.503 13.1916 193.507 13.6911 195.457 14.2112L196.23 11.3124C194.247 10.7838 192.212 10.2765 190.124 9.79123L189.445 12.7134ZM201.152 15.8327C203.067 16.4145 204.927 17.0179 206.732 17.642L207.712 14.8068C205.87 14.1698 203.975 13.5547 202.024 12.9622L201.152 15.8327ZM212.434 19.7536C214.271 20.4815 216.045 21.2331 217.758 22.0076L218.994 19.2741C217.237 18.4794 215.419 17.7093 213.539 16.9645L212.434 19.7536ZM223.212 24.6574C224.986 25.5832 226.685 26.5365 228.311 27.516L229.859 24.9463C228.179 23.9341 226.427 22.9509 224.6 21.9977L223.212 24.6574ZM233.306 30.7644C234.942 31.9138 236.491 33.0939 237.957 34.3032L239.866 31.9888C238.339 30.7291 236.728 29.5023 235.031 28.3098L233.306 30.7644ZM242.363 38.264C243.773 39.6483 245.089 41.0653 246.315 42.5132L248.604 40.5746C247.318 39.0555 245.94 37.571 244.465 36.1233L242.363 38.264ZM249.912 47.2135C251.027 48.8338 252.046 50.4878 252.971 52.1734L255.601 50.7293C254.627 48.9557 253.556 47.2158 252.383 45.5121L249.912 47.2135ZM255.534 57.4584C256.298 59.2602 256.97 61.0941 257.555 62.9576L260.417 62.0595C259.804 60.106 259.099 58.1807 258.296 56.287L255.534 57.4584ZM259.056 68.652C259.467 70.5554 259.798 72.4859 260.053 74.441L263.028 74.0531C262.762 72.0193 262.418 70.0068 261.988 68.0186L259.056 68.652ZM260.593 80.3267C260.7 82.28 260.739 84.2541 260.716 86.247L263.716 86.2821C263.74 84.2264 263.699 82.1857 263.588 80.1626L260.593 80.3267ZM260.47 92.1611C260.332 94.1292 260.139 96.1124 259.895 98.1083L262.873 98.4723C263.123 96.4281 263.321 94.3936 263.463 92.3711L260.47 92.1611ZM259.043 103.968C258.715 105.921 258.344 107.883 257.934 109.853L260.87 110.465C261.289 108.459 261.667 106.458 262.002 104.465L259.043 103.968ZM256.617 115.656C256.146 117.583 255.641 119.516 255.106 121.452L257.998 122.251C258.54 120.288 259.053 118.327 259.532 116.368L256.617 115.656ZM253.438 127.191C252.858 129.095 252.252 131 251.625 132.905L254.474 133.844C255.108 131.919 255.72 129.993 256.307 128.065L253.438 127.191ZM249.693 138.577C249.03 140.463 248.35 142.345 247.655 144.223L250.469 145.264C251.169 143.372 251.855 141.474 252.523 139.571L249.693 138.577ZM245.532 149.834C244.809 151.707 244.074 153.573 243.332 155.432L246.118 156.545C246.864 154.677 247.603 152.8 248.331 150.915L245.532 149.834ZM241.08 160.991C240.314 162.859 239.543 164.718 238.771 166.564L241.539 167.721C242.313 165.87 243.086 164.005 243.856 162.129L241.08 160.991ZM236.449 172.081C235.656 173.956 234.866 175.816 234.082 177.659L236.843 178.833C237.627 176.99 238.418 175.128 239.212 173.25L236.449 172.081ZM231.739 183.178C230.942 185.061 230.156 186.924 229.387 188.763L232.154 189.921C232.921 188.087 233.705 186.229 234.502 184.349L231.739 183.178ZM227.079 194.341C226.308 196.23 225.56 198.092 224.841 199.923L227.633 201.02C228.347 199.203 229.09 197.354 229.857 195.475L227.079 194.341ZM222.661 205.626C221.945 207.563 221.269 209.46 220.642 211.314L223.484 212.275C224.101 210.452 224.767 208.582 225.475 206.667L222.661 205.626ZM218.813 217.083C218.211 219.137 217.685 221.129 217.247 223.053L220.172 223.719C220.594 221.864 221.104 219.932 221.692 217.927L218.813 217.083ZM216.14 229.132C216.008 230.15 215.909 231.145 215.846 232.116L218.84 232.308C218.898 231.408 218.99 230.478 219.115 229.518L216.14 229.132ZM215.09 234.193C216.184 235.437 218.08 235.559 219.324 234.465L239.603 216.639C240.847 215.545 240.969 213.649 239.875 212.405C238.781 211.161 236.886 211.039 235.641 212.133L217.616 227.978L201.77 209.953C200.676 208.708 198.781 208.586 197.536 209.68C196.292 210.774 196.17 212.67 197.264 213.914L215.09 234.193ZM1.37004 14.6585C2.41173 14.529 3.44949 14.4012 4.48331 14.2752L3.75693 8.31929C2.7185 8.44593 1.67617 8.57428 0.629922 8.70433L1.37004 14.6585ZM10.6392 13.5389C12.6756 13.3003 14.6963 13.0684 16.7015 12.8431L16.0317 6.88063C14.0169 7.10695 11.9866 7.33997 9.94083 7.57973L10.6392 13.5389ZM22.6708 12.1874C24.6451 11.9754 26.604 11.7701 28.5477 11.5713L27.9373 5.60245C25.9835 5.80225 24.0146 6.00863 22.0303 6.22164L22.6708 12.1874ZM34.3328 10.9947C36.3384 10.8 38.3273 10.6125 40.2997 10.4321L39.7531 4.45705C37.7696 4.63848 35.7697 4.82702 33.7532 5.02274L34.3328 10.9947ZM46.4738 9.88582C48.5136 9.71154 50.5351 9.54505 52.5386 9.38626L52.0645 3.40502C50.0487 3.56479 48.0149 3.73229 45.963 3.90761L46.4738 9.88582ZM58.4948 8.93296C60.4623 8.78952 62.4117 8.65371 64.3434 8.52547L63.9459 2.53865C62.0011 2.66776 60.0387 2.80447 58.0585 2.94884L58.4948 8.93296ZM70.0851 8.16336C72.1872 8.03787 74.2677 7.92158 76.3266 7.8144L76.0146 1.82251C73.9403 1.9305 71.8447 2.04764 69.7276 2.17402L70.0851 8.16336ZM82.4393 7.52001C84.4554 7.43092 86.4503 7.35082 88.4239 7.27962L88.2076 1.28352C86.2175 1.35532 84.2065 1.43606 82.1744 1.52586L82.4393 7.52001ZM94.2817 7.0926C96.2283 7.03867 98.1536 6.99368 100.058 6.95751L99.9438 0.958586C98.0219 0.995098 96.0792 1.0405 94.1155 1.0949L94.2817 7.0926ZM106.295 6.86976C108.349 6.85119 110.377 6.84327 112.379 6.84584L112.387 0.845842C110.363 0.84325 108.315 0.851253 106.241 0.87L106.295 6.86976ZM118.312 6.88489C120.265 6.90831 122.192 6.94208 124.095 6.98605L124.233 0.987656C122.308 0.943154 120.358 0.909002 118.384 0.885323L118.312 6.88489ZM130.154 7.16336C132.224 7.23699 134.264 7.32319 136.273 7.42179L136.567 1.429C134.531 1.32905 132.464 1.24172 130.367 1.16715L130.154 7.16336ZM142.211 7.75451C144.161 7.87766 146.08 8.01299 147.97 8.16028L148.436 2.17843C146.516 2.0288 144.568 1.89141 142.59 1.76645L142.211 7.75451ZM154.018 8.68183C156.071 8.87633 158.087 9.08568 160.067 9.30956L160.741 3.34756C158.724 3.1195 156.672 2.90643 154.584 2.70858L154.018 8.68183ZM165.897 10.0245C167.846 10.2826 169.757 10.5555 171.631 10.8429L172.541 4.91227C170.625 4.61845 168.673 4.33975 166.685 4.07643L165.897 10.0245ZM177.708 11.8481C179.689 12.2005 181.626 12.5702 183.52 12.9568L184.72 7.07801C182.775 6.68106 180.788 6.30188 178.759 5.94082L177.708 11.8481ZM189.105 14.1744C191.148 14.6491 193.136 15.1447 195.071 15.6605L196.617 9.86304C194.618 9.3301 192.567 8.81898 190.464 8.33016L189.105 14.1744ZM200.716 17.2679C202.614 17.8444 204.455 18.4419 206.242 19.0597L208.203 13.3891C206.342 12.7457 204.428 12.1248 202.46 11.5269L200.716 17.2679ZM211.882 21.1481C213.698 21.8676 215.45 22.61 217.14 23.3743L219.612 17.9074C217.833 17.1026 215.993 16.3232 214.092 15.57L211.882 21.1481ZM222.518 25.9873C224.266 26.8993 225.938 27.8377 227.537 28.8009L230.633 23.6614C228.926 22.6328 227.147 21.6347 225.294 20.6679L222.518 25.9873ZM232.444 31.9918C234.049 33.1196 235.567 34.2764 237.003 35.4603L240.821 30.8316C239.263 29.5467 237.621 28.2965 235.893 27.0825L232.444 31.9918ZM241.312 39.3344C242.69 40.6869 243.974 42.0703 245.17 43.4825L249.749 39.6054C248.433 38.0506 247.023 36.5324 245.516 35.0529L241.312 39.3344ZM248.676 48.0643C249.763 49.6428 250.755 51.2539 251.657 52.8955L256.916 50.0072C255.918 48.1897 254.82 46.4067 253.618 44.6613L248.676 48.0643ZM254.153 58.0441C254.898 59.8 255.553 61.5882 256.124 63.4066L261.849 61.6105C261.222 59.6119 260.5 57.641 259.677 55.7013L254.153 58.0441ZM257.59 68.9687C257.992 70.8297 258.316 72.7192 258.565 74.635L264.515 73.8591C264.245 71.786 263.893 69.7325 263.455 67.7019L257.59 68.9687ZM259.095 80.4088C259.2 82.3271 259.239 84.268 259.216 86.2294L265.216 86.2996C265.24 84.2125 265.199 82.1385 265.086 80.0805L259.095 80.4088ZM258.974 92.0561C258.838 93.997 258.647 95.9545 258.406 97.9264L264.362 98.6542C264.615 96.586 264.816 94.5258 264.959 92.4761L258.974 92.0561ZM257.564 103.72C257.24 105.652 256.872 107.595 256.465 109.547L262.339 110.772C262.761 108.748 263.143 106.727 263.481 104.713L257.564 103.72ZM255.16 115.3C254.693 117.212 254.192 119.13 253.66 121.052L259.444 122.651C259.99 120.675 260.506 118.698 260.989 116.724L255.16 115.3ZM252.003 126.754C251.426 128.647 250.824 130.541 250.2 132.435L255.899 134.313C256.536 132.379 257.152 130.441 257.742 128.502L252.003 126.754ZM248.277 138.08C247.618 139.957 246.941 141.832 246.248 143.702L251.875 145.785C252.578 143.885 253.267 141.979 253.938 140.069L248.277 138.08ZM244.133 149.294C243.412 151.161 242.68 153.022 241.939 154.875L247.511 157.101C248.259 155.229 249 153.346 249.73 151.455L244.133 149.294ZM239.692 160.422C238.928 162.287 238.158 164.142 237.387 165.985L242.923 168.3C243.698 166.446 244.473 164.578 245.244 162.698L239.692 160.422ZM235.068 171.497C234.275 173.371 233.485 175.229 232.702 177.073L238.224 179.42C239.007 177.576 239.799 175.713 240.594 173.834L235.068 171.497ZM230.358 182.593C229.56 184.477 228.773 186.342 228.003 188.184L233.538 190.499C234.304 188.668 235.087 186.813 235.883 184.934L230.358 182.593ZM225.691 193.774C224.917 195.668 224.167 197.536 223.445 199.374L229.029 201.568C229.74 199.759 230.48 197.916 231.246 196.042L225.691 193.774ZM221.255 205.105C220.534 207.053 219.853 208.964 219.221 210.834L224.905 212.756C225.516 210.948 226.177 209.091 226.882 207.188L221.255 205.105ZM217.374 216.661C216.764 218.739 216.23 220.761 215.784 222.72L221.634 224.052C222.049 222.232 222.551 220.33 223.131 218.35L217.374 216.661ZM214.652 228.939C214.516 229.986 214.414 231.013 214.349 232.019L220.337 232.405C220.393 231.54 220.481 230.642 220.602 229.712L214.652 228.939Z" fill="#F49097"/>
</svg>
