<?xml version="1.0" encoding="UTF-8"?>
<svg id="Layer_1" data-name="Layer 1" xmlns="http://www.w3.org/2000/svg" version="1.1" viewBox="0 0 418.32 236.88">
  <defs>
    <style>
      .cls-1 {
        fill: #000;
        stroke-width: 0px;
      }
    </style>
  </defs>
  <path class="cls-1" d="M0,230.4c0-6.48,0-12.96,0-19.44h5.69c.06-.58.11-1.15.17-1.73-1.95-.38-3.91-.77-5.86-1.15,0-3.36,0-6.72,0-10.08,2.42,1.1,4.68,1.25,7.16-.19,1.03-.6,3.78-.48,3.9-.1,1.38,4.38,5.6,1.81,7.61,3.63.63-1.34,1.09-2.34,1.61-3.46-1.16-.42-2.21-.8-3.78-1.36,1.74-1.15,3.02-2,4.76-3.15-2.85-.79-4.48-.9-7.15.38C9.93,195.77,4.75,195.73,0,196.56c0-.48,0-.96,0-1.44,1.51-.67,3.01-1.88,4.53-1.9,2.93-.05,4.15-1.13,4.03-3.91-2.65-1.39-5.12,4.2-7.9-.16,1.36-.78,2.5-1.43,3.97-2.27-1.42-.8-2.42-1.37-3.46-1.95,1.65-1.85,5.92-1.17,8.27,1.06.48.45,1.28.98,1.78.86.51-.13,1.22-1.07,1.14-1.55-.11-.66-.78-1.32-1.37-1.79-.59-.46-1.36-.69-2.06-1.01.1-.28.2-.57.3-.85,3.16.33,6.39,1.23,9.46.84,2.97-.37,5.78-2.07,8.76-3.22-1.35-2.29-4.3-3.09-5.92-1.69-3.03,2.63-6,2.07-9,2,.28-1.23.48-2.12.69-3.02-.75.48-1.6.86-2.23,1.46-1.78,1.68-6.9,2.68-8.78,1.76,1.53-1.01,3.18-2.09,4.82-3.17-.15-.26-.3-.52-.45-.79-1.7-.11-3.4-.22-5.1-.33.25-.43.49-.85.74-1.28-.74-.94-1.48-1.89-2.22-2.83,0-.48,0-.96,0-1.44,1.28-.43,2.55-.86,3.83-1.29-.41-.12-.82-.23-1.23-.35-.2-1.32-1.04-3.15-.48-3.86,2.64-3.34.62-3.7-2.12-3.86v-2.16h10.05c.04-.17.08-.34.12-.51C6.78,157.1,3.39,156.31,0,155.52c0-12.72,0-25.44,0-38.16,5.12.07,10.24.15,15.36.19,2.96.03,5.93,0,8.89,0l.02,1.03c-3.92,1-8.5-.23-11.19,2.23.5,3.04.87,5.24,1.29,7.77,1.08-.54,1.84-.92,2.8-1.4.13,1.39.23,2.51.36,3.93,1.57-.19,2.87-.35,4.7-.57-1.13-1.41-1.79-2.22-2.68-3.33,3.81-1.33,7.2-2.52,11.22-3.93-1.73-.83-3.15-1.51-4.39-2.11,2.44-4.67,6.65-4.99,11.24-4.74,4.99.26,10.07-.28,14.99.4,5.6.78,11.21,2.13,16.55,3.97,4.07,1.41,7.74,3.98,11.59,6.03.37.17.75.35,1.12.53,2.87,1.66,5.74,3.31,8.6,4.98,1.77,1.04,3.4,2.47,5.3,3.12,4.27,1.46,8.78,2.23,12.98,3.84,14.44,5.53,29.29,4.96,40.25,4.14-5.95-.38-15.89-.48-25.66-1.85-5.99-.84-11.7-3.62-17.54-5.53,4.61.7,9.19,1.65,13.82,2.03,7.73.63,15.49.93,23.25,1.3,2.86.14,5.74.27,8.6.13,8.7-.41,17.4-1.11,26.1-1.35,2.44-.07,4.9,1.11,7.37,1.63.99.21,2.04.35,3.04.23,1.73-.2,3.48-1.04,5.15-.88,7.57.75,15.09,2.08,22.67,2.61,12.73.88,25.52,1,38.24,2.02,8.21.66,16.33,2.5,24.51,3.57,17.44,2.3,34.88,4.58,52.36,6.58,6.75.77,13.77-.09,20.35,1.3,12.73,2.68,25.23,6.42,37.82,9.76,1.68.45,3.29,1.13,4.94,1.71.05.41.11.81.16,1.22-2.29.82-4.58,1.65-7.83,2.81,1.97.81,2.93,1.2,3.88,1.6.72.31,1.44.63,2.04.89-2.64,1.04-4.73,1.87-7.02,2.78,2.2,3.69,4.15,2.18,5.88,1,2.09-1.42,4.12-2.58,7.1-1.45-2.6,1.14-4.81,2.1-7.31,3.2.97.78,1.64,1.33,2.46,1.98-1.19,1.47-2.21,2.72-3.3,4.05,1.15.85,2.11,1.56,3.47,2.57-2.35.82-4.14,1.45-5.93,2.07.01.29.03.58.04.87,1.31.56,2.62,1.12,4.35,1.86-3.13,1.61-5.84,3.01-9.47,4.89,2.92.87,4.62,1.38,6.33,1.89,0,.34,0,.68,0,1.02-2.4.4-5.32,1.88-7.1,1.01-6.04-2.94-10.44.91-15.95,2.54.12-1.27.24-2.64.44-4.82-2.11.31-4.27.07-5.75.97-2.73,1.66-5.06,1.45-8.64-.4,2.36-.31,3.79-.28,5.05-.73.82-.29,1.38-1.29,2.06-1.98-.73-.44-1.43-.99-2.21-1.31-1.58-.64-3.19-1.24-4.83-1.7-.6-.17-1.31.1-1.98.17-1.98-2.44-4.71-2.5-7.96-2.53,2.64,1.94,4.7,4.11,7.93,2.48.34.63,1.1,1.65.94,1.83-1.15,1.24-2.34,2.55-3.78,3.37-2.37,1.35-2.84,2.6-.96,4.17,1.8-.52,3.21-.92,4.61-1.32.09.33.19.66.28.99-4.72,4.16-9.91,2.58-15.17.93,1.58,2.19,4.55,1.88,5.55,5.2.94,3.1.48,3.74-2.19,4.29-1.73.36-4.14.45-4.97,1.59-1.79,2.46-2.87.78-4.41.1-2.86-1.27-5.86-1.22-8.82-1-.04.34-.08.69-.12,1.03,2.19.51,4.39,1.02,7.63,1.77-2.04.48-2.98.7-4.13.98,3.05,5.38,7.57-.69,11.04,1.76-4.12,2.12-7.84,2.85-12.08.62-2.21-1.16-5.57-3.45-7.12,1.37-.16.5-1.14.81-1.79,1.06-2.29.87-4.6,1.68-6.9,2.52-.02.32-.05.64-.07.96,1.96.36,5.18,1.63,5.68.93,2.91-4.02,5.17-2.95,7.91-.02.88.94,2.4,1.28,3.62,1.89-.13.28-.26.57-.39.85-2.24-.45-4.47-.91-6.71-1.36-.38.59-.77,1.17-1.15,1.76,1.83.99,3.67,1.98,5.92,3.19-5.52,2.43-15.16,2-15.23-.33.72-.28,1.51-.58,2.29-.88l-.45-.84c-1.63.92-3.27,1.85-4.82,2.73h-23.34c-.03-.39-.06-.78-.09-1.17,1.52-.62,3.03-1.24,4.2-1.71-2.95-2.14-5.8-4.22-9.34-6.8,3.27-1.4,6.19-2.65,9.1-3.9-.21-.58-.43-1.15-.64-1.73-2.69.8-5.65,2.71-8.01,2.14-3.75-.91-3.79,3.36-6.59,2.96,0,.31-.02.62-.02.93,1.35.46,2.71.92,4.53,1.55-1.99.82-3.46,1.43-4.01,1.66-2.84-.71-5.02-1.26-7.92-1.99.49,2.16.72,3.17,1.01,4.44,3.18.3,6.3.6,9.83.94-.8-1.1-1.25-1.71-1.73-2.36,3.65-1.73,6.45-.8,8.45,2.33-2.79.78-5.63,1.93-8.56,2.31-3.27.42-6.64.27-9.96.12-3.15-.15-6.31-.98-9.44-.85-3.07.12-6.24,2.28-9.85-1.44,2.52-.24,4.13-.48,5.74-.52,2.74-.07,5.49.13,8.2-.09.78-.06,1.48-1.16,2.22-1.79-.72-.43-1.4-.97-2.18-1.27-1.03-.4-2.12-.61-2.61-.74,3.39-1.43,6.99-2.96,10.6-4.47.32-.13.72-.23,1.05-.15,3.71.84,4.5-1.54,5.21-5.21-3.02,1.1-5.52,1.97-8,2.91-2.54.96-3.79,0-4.37-3.28h7.7c.01-.31.02-.62.04-.92-2.78-.87-5.57-1.74-8.35-2.61l.06.03c-1.18-2.61-1.55-5.23-.1-7.88l2.71.19c1.34,0,2.68,0,4.03,0,.19-.32.37-.64.56-.97-.92-1.05-1.7-2.8-2.77-3-2.34-.43-4.83,0-7.25-.04-1.79-.03-3.75.18-5.32-.48-3.21-1.34-6.07-1.04-8.3,1.63,2.55,1.39,5.07,2.76,7.97,4.34-.67.99-1.41,2.08-2.15,3.17.32-.07.64-.13.96-.2.37,1.02.76,2.04,1.09,3.07.42,1.34.79,2.69,1.27,4.33-1.89,2.28-5.77,4.71-8.84,5.19.56,1.15,1.07,2.22,1.69,3.51-1.8.27-3.3.49-4.8.71l.39.56c-1.14,1.06-2.28,2.11-3.92,3.64,2.35.24,4.34.44,6.32.65,0,.31,0,.63.01.94-1.56.33-3.12.95-4.68.94-15.17-.15-30.35-.31-45.52-.7-4.3-.11-8.57-1.37-12.87-1.42-4.63-.05-9.27.81-13.91,1.08-1.91.11-4.55,1.14-4.86-2.35,0-.07-.38-.1-.71-.18-.33.81-.66,1.64-.92,2.28-1.38-.37-2.51-.91-3.65-.93-1.69-.03-3.39.3-5.87.57-.85,1.35-3.15,1.56-6.38-.57,1.46-.23,2.71-.43,3.97-.62-1.88-2.21-5.67-2.76-6.11-.81-.83,3.7-3.36,2.66-5.56,2.63-3.35-.04-6.7-.32-10.05-.36-5.82-.08-11.64-.04-17.46-.07-3.93-.02-7.85-.04-11.78-.15-1.46-.04-2.92-.34-4.38-.52.03-.42.07-.84.1-1.26,2.46-.32,4.92-.64,7.38-.95.02-.35.03-.7.05-1.05-1.25-.18-2.49-.45-3.75-.53-1.93-.12-3.69-.34-3.63-2.9l-.05.04c1.58-.24,3.16-.48,5.06-.77-.42,1-.63,1.48-.88,2.07h9.26c-.19-.97-.35-1.78-.5-2.59.25-.17.5-.34.75-.51.68.72,1.77,1.35,1.97,2.18.87,3.69-3.8,2.09-4.71,5.43,5.4-1.45,10.32-2.77,15.23-4.09-.05-.23-.11-.46-.16-.7-2.37-.39-4.75-.78-8.05-1.33,2.31-1.33,3.73-2.13,5.92-3.39h-12.25c-.05-.34-.09-.67-.14-1.01.93-.37,1.86-.75,2.8-1.11.94-.35,1.9-.68,2.85-1.01-.12-.42-.25-.84-.37-1.26-2.46.73-5.82.7-7.2,2.34-2.72,3.25-5.29,1.88-8.3.97,1.19-.84,2.37-1.69,3.89-2.77-7.15-2.64-11.12,3.6-16.77,4.54,3.56,2.27,6.8,4.34,10.02,6.4-1.23,2.6-2.7,4.08-5.97,3.9-9.52-.51-19.06-.59-28.59-.79-9.21-.2-18.42-.36-27.63-.5-8.73-.13-17.47-.2-26.21-.29ZM121.64,198.7c4.17,1.35,7.58-2.19,11.72-1.9-1.14-.78-2.53-1.75-3.53-1.45-2.8.85-5.43,2.22-8.13,3.39-1.66-.11-2.95.98-1.92,2.18,1.35,1.58,3.58,2.41,5.31,3.48-.08-1.34-.15-2.48-.21-3.54-1-.67-2.11-1.42-3.23-2.17ZM291.6,203.78c.13-1.1.26-2.21.47-3.93-1.34-.32-3.18-.75-5.61-1.32,1.22,1.7,1.97,2.74,2.71,3.77-.84.77-1.64,1.51-3.16,2.91,2.64.45,4.35.75,6.3,1.08-.34-1.19-.54-1.87-.74-2.55h7.46c-2.66-2.45-5.16-2.81-7.43.04ZM343.46,180.75s-.04-.04-.04-.04c-1.57,1-3.14,1.99-5.25,3.33h14.56c.03-.27.07-.54.1-.81-.96-.54-1.93-1.07-2.32-1.29.18-1.6-.06-3.06.53-3.96.89-1.34,2.37-2.29,3.59-3.4-.18-.24-.35-.49-.53-.73-6.17,2.01-12.35,4.02-19.54,6.36,2.15.13,3.43.21,4.71.29,1.39.09,2.78.17,4.17.26ZM129.65,210.94c.85.55,1.65,1.47,2.55,1.59,1.95.24,3.96.08,5.94.08-.01-.54-.02-1.08-.03-1.62h-8.53c1.3-3.08,9.23-6.08,11.95-4.38-.71.85-1.41,1.68-2.11,2.51.16.29.31.59.47.88,4.75-1.78,9.49-3.56,14.79-5.54-1.29-.13-2.08-.28-2.87-.29-4.13-.07-8.27-.35-12.37-.07-2.88.2-6.09.53-8.45,1.96-3.1,1.88-6.1,2.23-9.5,1.57-.05.34-.1.68-.15,1.01,2.77.77,5.54,1.54,8.3,2.31ZM166.31,229.7c.91-.9,1.81-1.8,3.1-3.08-1.05-.59-2.2-1.22-3.55-1.97.61-.85,1.16-1.61,1.86-2.59-2.26.44-4.29,1.02-6.35,1.18-4.58.37-4.59.28-6.7,4.58,3.64-1.31,8.33-.57,11.67,1.84,2.51,1.31,4.78,2.41,7.18-.63.85-1.08,3.74-1.87,4.77-1.25,4.29,2.58,7.42.05,10.47-1.21-1.45-1.51-2.84-2.95-4.74-4.93,8.22-.19,8.68-.37,8.71-2.84-2.94,0-6.33.91-8.71-.25-2.58-1.25-4.65-3.38-7.86-3.55-1.49-.08-2.93-1.05-4.39-1.62-.19.51-.39,1.02-.58,1.53,3.31,1.31,6.61,2.62,9.85,3.9-.76,7.52-6.6,3.57-10.71,4.23.7,1.87,1.26,3.37,1.93,5.14-2.07.53-4.01,1.02-5.94,1.51ZM240.07,196.44c.97-2.26,1.2-4.29,2.28-4.96,1.86-1.17,4.11-1.14,5.63,1.23.48.75,1.36,1.45,2.21,1.75,5.21,1.8,10.46,3.49,15.71,5.19.35.11.79-.07,1.18-.12.08-.41.17-.81.25-1.22-2.84-.87-5.68-1.75-8.88-2.73.96-.77,1.98-1.59,3.64-2.93-4.6-.26-8.62-.49-12.63-.71.03-.36.06-.73.09-1.09,1.79-.68,3.57-1.37,4.87-1.86.88.97,1.74,2.37,2.1,2.25,1.75-.58,3.37-1.56,5.03-2.4-1.25-1.58-2.49-3.16-3.89-4.94,1.34-.58,3.45-1.49,4.59-1.98,2.82,1.54,4.82,2.63,6.82,3.72.22-.37.45-.75.67-1.12-2.63-1.79-5.26-3.59-7.74-5.28-5.2,1.65-10.4,3.31-16.04,5.1,1.81.7,3.18,1.23,5.4,2.09-5.23,4.14-11.29,3.61-16.56,5.75.83,1.63,1.62,3.17,2.46,4.8,1.29-.25,2.44-.47,2.81-.54ZM126.83,227.99c-.63,3.14,1.47,3.29,3.59,2.71,4.25-1.17,8.42-2.62,12.84-4.03-1.07-.67-2-1.25-2.92-1.83,2.64.52,6.51-2.22,7.3,2.71,1.43-.41,2.76-.79,4.64-1.32-1.79-1.36-3.13-3.23-4.6-3.34-5.54-.41-11.13-.26-16.7-.26-.9,0-1.8.33-3.37.65,2.94,1.01,5.22,1.78,7.49,2.56-3.65.41-7.2-.02-10.59.53-3.34.54-6.53,2.08-9.78,3.18l.41,1.37c3.83-.96,7.66-1.92,11.7-2.93ZM123.05,220.4c1.69.22,2.77.61,3.75.44,4.08-.71,8.15-2.09,12.05.69.37.26,1.21.09,1.72-.13,2.12-.9,4.2-1.89,6.48-2.94-3.5-2.66-7.69,2.67-10.91-1.32,4.22-1,8.36-1.99,12.61-3,.2,2.32,2.2,2.84,4.21,2.55-.59-2.11-1.14-4.05-1.79-6.35-2.57,1.34-7.02-.65-8.49,3.95-2.93.18-5.76.35-8.58.52-.19,1.12-.35,2.06-.63,3.71-4.09-3.33-6.82-.58-10.41,1.88ZM291.78,220.71c4.29-.68,9.33,1.47,12.22-3.92.33.3.66.59.99.89-.28,1.5-.55,2.99-.84,4.53h6.33c-2.78-2.61-4.9-4.42-6.75-6.47-.46-.51-.38-2.41.02-2.63,2.2-1.19,4.58-2.06,6.9-3.05-1.37-.51-2.94-.75-4.31-.32-3.45,1.08-6.45,3.6-10.39,3.12-.33-.04-.72.41-1.64.96,2.13.48,3.67.83,6.36,1.44-3.54,2.17-6.22,3.8-8.89,5.44ZM132.37,190.27c1.6,1.04,2.88,1.86,4.16,2.69-.18.32-.35.63-.53.95,6.69,1.14,8.73-4.4,11.94-8.81-2.34.77-4.5,1.48-6.62,2.18-1.32-2.87-6.49-4.04-9.33-2.29,6.9.67,8.64,1.81,7.32,5.02-2.26-.37-4.75-2.88-6.94.26ZM77.04,223.7c-.12-.37-.23-.75-.35-1.12-2.09.86-4.17,1.76-6.28,2.57-.63.24-1.35.45-2,.37-3.65-.41-7.07-.37-8.34,2.93h20.27c.04-.22.08-.44.12-.65-1.89-.87-3.78-1.74-5.87-2.7.88-.51,1.67-.96,2.45-1.41ZM115.34,211.1c3.92,3.04,1.6,5.18-3.31,8.2,2.57.12,4.44.2,6.3.29-.22-.34-.45-.68-.67-1.02l2.77-5.61c.3.15.59.3.89.44-.17,1.38-.35,2.77-.49,3.89,2.58-1.19,4.76-2.2,6.94-3.21-.04-.14-.08-.29-.12-.43-1.19.18-2.39.37-3.43.53-1.67-4.35-5.08-2.93-8.89-3.09ZM14.57,169.34c.2-.37.41-.74.61-1.11-.32-.47-.63-.93-.95-1.39-.53-.78-1.07-1.56-1.61-2.34,1.03-.17,2.08-.53,3.1-.46,1.46.1,2.91.51,5.2.94-6.08-4.37-9.54-5.04-11.67-2.75.55.42,1.11.84,1.9,1.44-2.13.52-3.82.94-5.69,1.39,3.56,1.67,6.33,2.97,9.11,4.28ZM129.94,201.03c.08.48.15.96.23,1.44,3.07-.42,6.13-.87,9.2-1.24,2.48-.3,3.39-1.6,2.51-3.88,2.2-.27,4.11-.51,6.03-.75-.06-.48-.12-.96-.17-1.44-2.62.21-6.38-.57-7.63.85-2.83,3.23-5.58,5.52-10.17,5.02ZM26.35,214.85c.09-.54.18-1.08.27-1.62-3.53-.96-7.05-1.92-10.62-2.9.18-.7.4-1.54.62-2.41-3.81-.52-4.82.27-6.19,4.62,3.13-1.32,9.11-.22,12.36,1.94.88.58,2.36.27,3.56.37ZM55.77,227.72c-.06-.77.01-1.11-.11-1.22-2.54-2.22-10.9-2.19-12.99.07-.27.29-.42.99-.25,1.3.23.44.83,1,1.24.97,4.05-.31,8.09-.73,12.12-1.12ZM64.7,221.89c.89,1.73,2.82,1.47,4.54.69,3.02-1.37,5.92-3.02,9.11-4.69-.33-2.21-1.03-3.16-2.28-2.45-3.73,2.1-7.44,4.22-11.38,6.45ZM279.65,196.28c3.11,2.47,4.14,2.51,6.36.86.85-.63,1.76-1.27,2.74-1.62,3.19-1.15,6.42-2.17,9.64-3.23-.05-.29-.1-.58-.14-.87-1.35,0-3.09-.54-3.98.1-2.51,1.81-4.88,2.57-7.99.24.35,5.31-3.28,4.2-6.62,4.52ZM274.34,193.47c.1.31.19.62.29.93,5.38-1.84,10.76-3.68,16.22-5.54-2.57-2.62-7.41-1.25-16.51,4.6ZM90.53,214.53c4.53.37,8.26.68,11.99.98.09-.53.19-1.06.28-1.6-3.18-.96-6.35-1.93-9.65-2.93-.52.7-1.18,1.61-2.61,3.54ZM113.86,203.96c-1.48-3.7-5.15-3.46-8.12-4.41-.4-.13-1.37.28-1.44.58-.14.6,0,1.41.33,1.93,1.05,1.65,7.15,2.84,9.23,1.89ZM283.67,213.08c.18,4.7,5.52,6.43,10.85,3.77-3.57-1.24-7.07-2.45-10.85-3.77ZM235.26,220.16c2.08.16,4.17.33,5.93.47,1.85-1.39,3.53-2.64,5.47-4.1-4.67-1.13-8.09,1.1-11.39,3.63ZM93.89,195.16c-.06-.54-.13-1.09-.19-1.63-2.7.42-5.41.84-8.35,1.3.63.96.97,1.47,1.35,2.04-1.01.28-1.81.51-3.08.86,4.88,2.62,6.75-2.56,10.28-2.57ZM373.86,170.48q4.94,2.32,10.07-4.29c-3.32,1.42-6.65,2.83-10.07,4.29ZM251.26,175.8c-3.33-3.11-5.55-1.82-6.3,3.46,1.94.17,3.84.34,5.74.5.03-.33.05-.66.08-.99-1.25-.75-2.49-1.5-3.74-2.24.11-.24.21-.48.32-.73h3.9ZM272.87,206.4c-6.26-.18-12.56,2.02-13.63,4.63,2.45-.87,4.82-1.57,7.06-2.56,1.94-.85,4.84,1.49,6.57-2.07ZM75.79,203.24c.1.26.19.52.29.78-2.56,1.3-5.12,2.6-8.34,4.23,4.91-.89,9.14-1.66,13.37-2.43,0-.35,0-.71.01-1.06-1.77-.51-3.55-1.02-5.32-1.53ZM217.54,190.22c-2.57-2.49-9.4-1.09-10.73,1.58,3.82-.56,7.27-1.07,10.73-1.58ZM270.42,188.77c.13.42.25.85.38,1.27,2.58-.56,5.17-1.12,8.64-1.87-4.8-2.63-7.35-2.25-9.02.6ZM49.91,208.2q-1.84-3.38-9.47,1.62c3.05-.52,6.09-1.04,9.47-1.62ZM280.47,180.64c-1.77-2.86-10.43-4.06-12.6-2.72,4.09.88,8.35,1.8,12.6,2.72ZM11.96,191.51c1.99-.8,3.23-1.47,4.54-1.8,2.29-.57,4.88-.5,6.87-3.6-4.05,1.05-7.09,1.74-10.07,2.63-2.35.7-2.19,1.96-1.35,2.77ZM232.35,215.17c1.55-.08,3.01-.16,4.57-.24-1.55-5.19-1.6-5.22-4.94-3.97.12,1.36.23,2.55.37,4.22ZM279.38,214.56c-2.5.31-4.31.53-6.13.76.53.93.83,2.26,1.63,2.7,2.34,1.3,3.33-.29,4.5-3.46ZM10.31,174.38c.19-1.57.35-2.95.56-4.69-2.47.52-4.64.98-6.81,1.44.03.3.07.61.1.91,2.03.77,4.07,1.55,6.15,2.34ZM275.43,212.36c3.02-1.36,6.04-2.72,9.04-4.07-3.51-1.99-4.24-1.73-9.04,4.07ZM217.13,228.42c-.11-.38-.22-.76-.33-1.15-3.05.72-6.09,1.44-9.14,2.15,3.56,1.68,6.75,1.55,9.48-1.01ZM106.21,213.98c.02.33.04.67.06,1,2.25.29,4.5.65,6.77.8.44.03.93-.79,1.4-1.22-.49-.42-1-1.23-1.48-1.21-2.26.09-4.51.4-6.76.63ZM337.85,209.03c-.28-.43-.56-.86-.84-1.3-2.26,1.13-4.52,2.26-6.78,3.38.12.25.24.5.35.76,1.9-.16,3.81-.32,6.13-.52.24-.49.68-1.41,1.13-2.33ZM371.63,176.89c2.52.14,5.04.28,7.56.43.01-.35.03-.7.04-1.05-2.49-.84-4.87-3.48-7.6.62ZM22.32,218.45c3.41,3.5,5.03,3.27,8.1-.69-2.71.23-5.03.43-8.1.69ZM185,144.45c2.21,1.66,4.04,3.04,5.93,4.47,1.27-4.59,1.03-4.77-5.93-4.47ZM39.18,227.44c-.18-.7-.35-1.39-.53-2.09-2.46.76-4.92,1.53-7.38,2.29.16.56.32,1.11.48,1.67,2.48-.62,4.95-1.24,7.43-1.87ZM107.08,206.44c-3.5-1.92-6.81-.98-8.45,2.71,2.91-.93,5.54-1.78,8.45-2.71ZM352.61,189.72c.11-.43.23-.86.34-1.28-2.74-.18-4.34-4.87-8.5-1.44,3.02,1.01,5.59,1.87,8.16,2.72ZM274.87,175c-.02.28-.05.56-.07.84,2.04-.25,4.09-.41,6.08-.87.22-.05.03-1.84.03-2.91-2.33,1.13-4.19,2.03-6.04,2.93ZM339.82,168.86c2.7-.39,5.18-.75,7.66-1.1-.04-.31-.09-.61-.13-.92q-6.39-.44-7.53,2.02ZM321.3,208.94c.06.36.12.72.18,1.08,1.38.24,2.75.48,3.56.62,1.74-1.44,3.02-2.51,4.3-3.57-.06-.16-.13-.32-.19-.49-2.62.78-5.24,1.57-7.86,2.35ZM30.17,209.92c3.08,4.01,5.06,4.28,7.47,1.19-2.45-.39-4.57-.73-7.47-1.19ZM230.56,199.27c.05.47.11.94.16,1.42,2.11-.28,4.21-.56,7.11-.94-3.21-3.79-5.16-.94-7.26-.47ZM367.53,198.36c3.28-.35,6-.64,9.03-.97-4.21-2.34-7.62-2.17-9.03.97ZM116.35,153.87c.02.31.03.62.05.93h8.17c-.02-.45-.03-.89-.05-1.34-2.72.13-5.45.27-8.17.4ZM99.73,155.46c-.25.57-.5,1.13-.76,1.7,2.34.98,4.68,1.97,7.03,2.95.17-.4.34-.81.52-1.21-2.26-1.15-4.52-2.29-6.79-3.44ZM88.5,213.82c-.07-.3-.14-.61-.2-.91-1.11-.24-2.22-.61-3.35-.66-.68-.03-1.5.3-2.02.75-.29.25-.31,1.42-.08,1.55.64.37,1.53.69,2.22.55,1.18-.24,2.3-.84,3.44-1.28ZM84.72,167.45c.13-.41.27-.82.4-1.23-2.54.09-3.86-4.11-8.16-1.13,3.15.96,5.46,1.66,7.76,2.37ZM12.59,156.93c.08.64.16,1.29.24,1.93,2.04-.41,4.08-.83,6.12-1.24-.12-.6-.23-1.21-.35-1.81-2,.37-4.01.74-6.01,1.11ZM41.94,223.52c-1.09-2.62-1.85-5.37-5.1-3.16.78,1.27,1.53,2.51,2.42,3.97.53-.16,1.54-.46,2.68-.81ZM96.22,160.61c-.08.51-.16,1.02-.23,1.53,2.32.35,4.64.7,6.96,1.05.08-.48.15-.96.23-1.44-2.32-.38-4.64-.75-6.96-1.13ZM118.96,172.82c-.2-.61-.39-1.22-.59-1.83-1.81.65-3.61,1.3-5.42,1.95.15.48.31.96.46,1.44,1.85-.52,3.7-1.04,5.55-1.56ZM117.75,221.83q3.34,3.7,5.54.6c-2.05-.22-3.79-.41-5.54-.6ZM164.27,211.83c.04.35.07.7.11,1.05,1.93-.13,3.86-.27,6.13-.43-2.49-3.81-4.34-1.65-6.24-.63ZM334.39,193.98c1.2-.8,2.23-1.22,2.86-1.98.55-.66.65-1.68,1.13-3.08-2.98,1.2-5.2,1.97-3.99,5.06ZM198.88,186.1c-.12.34-.24.68-.36,1.02.94.63,1.82,1.44,2.85,1.85,1.13.45,2.41.54,3.63.79.12-.36.24-.71.35-1.07-2.16-.86-4.31-1.73-6.47-2.59ZM70.55,141.8c.04-.46.08-.92.12-1.38-2.49-.15-4.99-.31-7.48-.46-.03.33-.07.65-.1.98,2.49.29,4.97.57,7.46.86ZM34.24,223.14c-.15-.41-.31-.81-.46-1.22-1.33-.11-2.65-.23-3.95-.34.14,1.33.23,2.24.39,3.74,1.48-.8,2.75-1.49,4.03-2.19ZM20.93,225.71c1.88,3.08,3.33,2.35,4.53-.34-1.51.11-3.02.23-4.53.34ZM181.08,212.84c.1-.53.19-1.05.29-1.58-1.77-.35-3.53-.69-5.3-1.04-.1.56-.21,1.13-.31,1.69,1.77.31,3.54.61,5.32.92ZM219.35,145.92c-2.58.49-4.6.88-6.61,1.26l.19.85c2.03-.3,4.67,1.9,6.42-2.11ZM388.93,181.19l-.44-.87c-1.47.37-2.95.75-5.45,1.38,1.41.93,2.28,1.85,2.67,1.68,1.17-.5,2.16-1.43,3.22-2.19ZM200,227.8c-.36-.6-.72-1.2-1.08-1.8-1.35.95-2.7,1.9-4.05,2.85.26.41.52.83.77,1.24,1.45-.76,2.91-1.53,4.36-2.29ZM244.92,171.81c-.05-.49-.11-.98-.16-1.48-2.39.31-4.78.63-7.18.94.05.31.1.61.15.92,2.39-.13,4.79-.26,7.18-.38ZM36.75,215.8c-1.94.11-3.88.23-6.86.4,2.92,1.22,4.72,3.31,6.86-.4ZM121.46,166.65c-.02-.24-.05-.48-.07-.72h-7.78c0,.24.02.48.03.72h7.83ZM203.74,163.47c-.17.55-.34,1.1-.52,1.65,2.49.7,4.99,1.39,7.48,2.09.05-.2.1-.39.15-.59-2.37-1.05-4.74-2.11-7.12-3.16ZM237.84,158.45c-.11.36-.23.71-.34,1.07,1.74-.49,2.58,4.63,5.34.09-1.88-.44-3.44-.8-5-1.16ZM89.66,162.03c-.03-.5-.07-1-.1-1.5-1.88.17-3.76.35-5.65.52.04.47.08.94.12,1.41,1.88-.15,3.75-.29,5.63-.44ZM332.78,198.23l-.08.64h6.65c-.02-.46-.04-.92-.06-1.39-2.17.25-4.35.5-6.52.75ZM380.12,173.2c.07.48.13.96.2,1.44,2.05-.44,4.09-.88,6.14-1.31-.07-.36-.15-.72-.22-1.08-2.04.32-4.08.64-6.11.95Z"/>
  <path class="cls-1" d="M153.42,107.97c-5.05,1.49-10.03,3.43-15.18,4.34-3.91.69-8.06.19-12.1.04-10.64-.4-20.89-2.5-30.5-7.24-.7-.34-1.3-.88-1.69-2.18,1.49.34,3.03.53,4.47,1.04,8.35,2.98,16.65,6.42,25.71,6.14,6.17-.19,12.44-.61,18.43-1.98,5.55-1.27,11.65-2.83,15.94-6.24,6.38-5.07,14.05-5.52,21.01-8.3,3.8-1.51,8.2-2.43,12.26-2.21,10.02.54,19.99,1.85,29.98,2.93,1.46.16,2.87.76,4.3,1.15-.05.39-.11.77-.16,1.16-4.52-.36-9.05-.63-13.56-1.12-5.88-.64-11.73-1.99-17.6-2.03-4.79-.03-9.59,1.34-14.37,2.23-2.62.49-5.18,1.25-7.51,1.83,11.95-.39,24-1.15,36.05-1.05,7.26.06,14.53,1.34,21.76,2.29,11.38,1.49,22.8,2.83,34.1,4.81,16.68,2.93,33.46,4.53,50.37,5.03,7.5.22,14.98.8,22.55.69-6.09-.93-12.17-1.86-18.26-2.79,0-.42,0-.83,0-1.25h18.72c.18-.55.37-1.11.55-1.66-2.31-1.53-4.44-3.81-6.97-4.42-4.85-1.17-9.94-1.39-14.93-2.01-5.04-1.2-10.08-2.4-15.12-3.6-4.09-.83-8.18-1.7-12.29-2.46-.75-.14-1.58.19-2.37.3-.89.12-2.09.64-2.63.26-5.23-3.75-11.43-3.41-17.22-3.56-16.05-.42-32.11.14-48.16-.22-8.43-.19-16.83-1.73-25.27-2.15-3.46-.17-6.98,1.01-10.48,1.56-1.29.2-2.58.39-3.87.58-.08-.47-.17-.93-.25-1.4,4.07-.81,8.13-2.29,12.2-2.31,10.49-.05,20.99.57,31.48.86,3.1.09,6.2-.13,9.3-.06,16.03.36,32.07.42,48.07,1.3,7.47.41,14.84,2.43,22.26,3.73l-.06-.04c9.71,4.52,20.02,6.17,30.64,6.64,1.15-5.74-1.83-8.85-7.11-10.98,1.65-.29,2.67-.47,4.33-.77-1.01-.85-1.44-1.4-2.01-1.65-11.94-5.36-23.96-10.66-37.11-12.11-8.09-.89-16.27-.92-24.41-1.36-9.45-.51-18.89-1.21-28.35-1.47-4.01-.11-8.04.75-12.07,1.06-6.09.48-12.19.79-18.27,1.36-1.73.16-3.57.72-5.05,1.6-6.88,4.08-14.29,6.63-22.13,8.03-.67.12-1.38.08-2.76.14.95-1.09,1.49-1.71,2.3-2.63-1.95.45-3.59.83-5.24,1.22-.12-.29-.24-.58-.36-.87.82-.42,1.59-.98,2.46-1.23,11.97-3.41,23.82-7.38,35.97-9.92,7.27-1.52,15.02-.95,22.55-1,16.3-.12,32.61-.18,48.91.06,4.86.07,9.76.97,14.56,1.92,7.76,1.54,15.45,3.44,22.87,5.11-.44-1.34-.84-2.74-1.38-4.09-.24-.61-.65-1.3-1.18-1.63-1.67-1.03-4.5-1.11-3.19-4.33-4.4-.28-1.71-5.53-4.66-6.7-2.89-1.15-5.83-2.27-8.85-2.96-12.52-2.86-25.2-2.46-37.93-1.97-11.46.44-22.55,2.78-33.71,5.12-7.31,1.53-14.23,4.22-21.43,6.06-17.54,4.48-34.73,10.04-51.05,18.07-3.37,1.66-7.33,2.11-11,3.18-2.05.6-4.03,1.41-6.07,2.03-5.36,1.62-10.72,3.28-16.13,4.73-1.43.38-3.15.41-4.58.02-5.93-1.64-12.76-.86-17.35-6.22-9.2-2.24-16.12-8.54-23.83-13.44-5.73-3.64-11.37-7.45-17.57-10.75.35.55.7,1.11,1.01,1.61-2.38,2.11-4.75,4.22-7.32,6.51.71.41,1.36.87,2.07,1.18,8.85,3.97,17.74,7.84,26.54,11.92,3.92,1.81,7.58,4.18,11.49,6,1.44.67,3.28.45,4.91.76,6.94,1.3,13.84,2.94,20.83,3.85,3.29.43,6.92.02,10.13-.91,12.41-3.6,24.68-7.64,37.07-11.29,2.01-.59,4.37.01,6.56.06.05.56.09,1.11.14,1.67-9.12,2.51-18.24,5.02-28.19,7.76-1.43,2.92-5.61,2.49-8.99,3.54-13.18,4.08-26.02,1.54-38.96-1.82-13.01-3.38-24.4-10.36-36.64-15.43-4.68-1.94-9.29-3.64-14.75-1.75,4.16,1.87,8.32,3.75,12.48,5.62-5.56.7-10.14-5.72-15.82-1.07,6.92,1.88,14.06,3.81,21.19,5.75-.11.49-.22.97-.34,1.46-7.98-2.06-15.77-5.31-24.13-5.1l-.25,1.12c2.32.5,4.64.98,6.96,1.49,5.96,1.31,11.95,2.5,17.87,3.99,4.76,1.2,9.45,2.66,14.13,4.17,7.7,2.48,15.3,5.27,23.04,7.6,5.72,1.72,11.55,3.74,17.43,4.16,8.86.63,17.81,1,26.31-3.34,7.78-3.97,16.02-7.02,24.08-10.42.97-.41,2.08-.49,3.13-.73.1.3.2.61.3.91-.96.56-1.88,1.23-2.9,1.66-10.61,4.46-21.21,8.94-31.85,13.31-10.63,4.37-21.44,3.19-32.08.31-4.55-1.23-8.66-3.98-13.14-5.54-6.64-2.31-13.42-4.26-20.18-6.22-5.05-1.47-10.15-2.82-15.27-4.02-5.58-1.31-11.19-2.49-16.83-3.48-1.61-.28-3.37.31-5.06.5-.06.47-.11.94-.17,1.4,3.6.92,7.21,1.85,10.81,2.77-.09.45-.18.9-.26,1.34-1.9-.32-3.81-.64-5.71-.97-2-.35-3.98-.91-5.99-.97-.78-.02-1.6,1.05-2.4,1.62.71.68,1.35,1.81,2.16,1.96,2.58.48,5.29.32,7.84.9,9.19,2.07,18.35,4.28,27.48,6.6,1.55.39,2.86,1.66,4.37,2.33,1.37.61,2.87.93,4.29,1.42,1.5.51,2.98,1.05,4.46,1.58.87.31,1.72.69,2.6.93.92.25,1.93.24,2.81.57,6.49,2.47,12.94,5.05,19.45,7.46,1.18.44,2.68-.03,3.87.39,1.43.51,2.69,1.51,3.65,2.08,3.44.45,6.62,1.24,9.78,1.18,4.72-.09,9.43-.78,14.15-1.23.98-.09,1.95-.28,2.97-.17-7.56,4.87-15.88,5.95-24.58,5.12l.07.04c-2.13-.55-4.35-.86-6.36-1.69-9.61-3.97-19.12-8.19-28.75-12.12-8.2-3.35-16.29-7.35-24.83-9.4-11.57-2.78-23.98-4.64-35.17.03C15.9,102.49,7.44,102.13,0,105.84v-2.88c12.28-4.14,23.51-9.61,31.78-20.35,9.27-12.05,19.37-23.46,28.99-35.24,1.88-2.3,3.2-5.06,4.83-7.57.47-.73,1.13-1.34,1.7-2l1.04.69c-2.57,4.29-5.13,8.58-7.7,12.86.26.34.51.68.77,1.01,1.8-.82,3.59-1.63,6.23-2.83-.86,1.78-1.4,3.02-2.03,4.2-.93,1.72-1.09,3.06,1.12,3.99,10.7,4.48,20.04,11.03,29.12,18.23,12.85,10.2,27.7,14.04,43.64,9.15,9.92-3.05,19.27-7.91,28.97-11.73,12.37-4.86,24.6-10.23,37.3-14.04,16.96-5.09,34.24-9.79,51.97-10.86,14.31-.86,28.74.34,43.11.63.68.01,1.36.09,2.11.15-.41-2.65-1.59-4-4.24-4.01-9.69-.06-19.46-1.06-29.05-.17-14.5,1.35-28.96,3.53-43.27,6.28-8.3,1.59-16.3,4.84-24.35,7.6-9.75,3.34-19.45,6.82-29.08,10.48-8.63,3.28-17.11,6.93-25.7,10.32-1.26.5-2.7.6-4.07.71-1.4.11-3.18-.61-3.02,1.95.02.26-.78.88-.95.8-3.54-1.64-6.1,1.38-9.11,2.06-6.08,1.37-11.04-.48-15.9-3.65-1.18-.77-2.51-1.31-3.7-2.07-.86-.54-1.6-1.27-2.4-1.91.19-.29.39-.59.58-.88,3.34,1.62,6.65,3.28,10.02,4.82,1.28.59,2.75,1.44,4.01,1.26,7.49-1.09,15.43-.71,21.88-5.73,4.61-3.58,9.09-7.32,13.71-10.89,1.6-1.24,3.38-2.27,5.16-3.26,4.17-2.31,4.19-2.27,8.67.3-4.33,2.28-8.59,4.54-12.86,6.79.12.27.24.54.36.8,15.18-5.87,30.36-11.74,45.54-17.6,12.99-3.31,26.05-6.04,39.36-8.04,14.15-2.13,28.16-4.25,42.49-3.64,2.63.11,5.28.02,7.91-.11,1.01-.05,2-.5,2.99-.77-.07-.33-.14-.65-.22-.98-1.42,0-2.83.04-4.25,0-14.3-.45-28.49.49-42.58,3.1-12.94,2.39-25.92,4.58-38.84,7.12-2.41.47-4.56,2.22-6.84,3.37-3.92.77-7.93,1.21-11.72,2.4-4.09,1.28-7.88,3.54-11.97,4.84-3.24,1.03-6.73,1.24-10.11,1.82l-.59-1.8c1.49-.77,2.97-1.57,4.48-2.3.42-.2,1.01-.07,1.39-.31,15.28-9.32,32.93-12.6,49.63-14.93,9.11-1.27,18.25-2.6,27.22-4.56,8.9-1.95,17.79-2.24,26.79-1.84,2.43.11,4.87.02,7.31.02,0-.44.01-.87.02-1.31-6.35-.13-12.76-.92-19.02-.25-11.41,1.21-22.71,3.35-34.08,4.96-6.63.94-13.44.98-19.91,2.5-9.88,2.32-19.57,5.47-29.29,8.46-3.24,1-6.33,2.31-9.72.82l.07.05c6.07-2.71,12.13-5.45,18.22-8.12,1.3-.57,2.72-.86,4.09-1.27l-.06.04c8.63-1.32,17.24-2.76,25.88-3.95,15.63-2.16,31.27-4.24,46.93-6.18,3.34-.41,6.77-.06,10.14-.55-20.72-3.27-40.64,4.44-61.15,4.43,16.05-4.7,32.75-5.33,49.21-7.39-.01-.38-.02-.76-.03-1.13-1.11-.14-2.24-.18-3.33-.43-5.36-1.23-10.65-2.96-16.08-3.64-5.14-.65-10.43-.16-15.64-.28-2.47-.06-4.93-.36-7.4-.55.03-.46.05-.92.08-1.39,3.15,0,6.38.4,9.45-.12,2.95-.5,5.73-1.95,8.59-2.99-.05-.37-.09-.73-.14-1.1-3.98.46-7.95.92-11.93,1.38l-.18-.61c2.02-.52,4.06-1.51,6.07-1.46,6.68.18,13.35,1.02,20.03,1.07,9.62.07,18.27,3.94,26.63,7.59,10.78,4.69,21.59,10.07,29.05,19.94.57.75,1.41,1.29,2.12,1.92.3.32.6.64.9.96,5.15,7.68,10.28,15.37,15.47,23.02.65.96,1.6,1.72,2.41,2.56.63.65,1.27,1.31,1.9,1.96,0,.2,0,.4,0,.6,3.61,7.42,7.17,14.88,10.85,22.26,3.44,6.89,6.34,14.18,10.67,20.46,8.42,12.2,20.76,18.59,35.33,20.37,8.13,1,16.36,1.25,24.54,1.83v12.24c-1.25-.17-2.5-.35-4.46-.62,1.36-.93,2.1-1.43,3.6-2.45-2.66.38-4.5.65-6.34.91-.08-.25-.16-.5-.24-.76,1.82-.77,3.64-1.55,5.42-2.3-8.68-1.33-17.3-2.23-25.71-4.07-8.43-1.85-16.65-4.63-25.9-7.28,1.32,1.32,2.04,2.63,3.08,2.97,7.04,2.3,14.13,4.42,21.23,6.54,1.6.48,3.26.88,4.92,1.04,2.63.26,5.28.23,7.91.46,1.35.12,2.67.53,4.92,1-9.14,1.86-17.12.88-24.8-1.61-7.04-2.28-13.74-5.57-20.71-8.09-4.23-1.53-8.65-2.62-13.06-3.56-6.91-1.48-13.84-3.05-20.84-3.89-9.39-1.13-18.86-1.53-28.28-2.36-9.78-.86-19.62-1.39-29.29-2.91-19.28-3.02-38.45-6.66-57.69-9.94-3.83-.65-7.74-.82-11.61-1.21,0-.46.01-.91.02-1.37,4.9-.03,9.93-.81,14.67.05,9.99,1.8,19.78,4.73,29.75,6.67,8.45,1.65,17,2.97,25.57,3.7,13,1.1,26.1,1.18,39.08,2.41,11.9,1.12,23.78,2.85,35.55,4.98,6.26,1.13,12.26,3.65,18.32,5.53.2-2.81-.86-3.86-4.8-5.14-17.24-5.6-35.09-7.3-53.02-8.92-17.65-1.59-35.28-3.51-52.84-5.86-11.49-1.54-22.78-4.68-34.29-6.04-8.87-1.05-17.94-.46-26.93-.57-3.11-.04-6.22,0-9.34,0-.03-.35-.06-.69-.08-1.04,2.38-.33,4.75-.81,7.14-.96,22.84-1.47,45.14,1.8,67.37,6.84,10.92,2.48,22.22,3.47,33.4,4.49,12.51,1.14,25.11,1.38,37.63,2.4,4.35.36,8.61,1.84,12.89,2.89,6.77,1.66,13.52,3.38,20.28,5.08.19-.55.37-1.09.56-1.64-3.63-1.31-7.2-2.86-10.91-3.87-3.33-.91-6.96-.82-10.21-1.91-9.86-3.32-19.99-3.2-30.2-3.62-17.12-.69-34.1-2.93-50.9-6.57-10.99-2.38-22.1-4.25-33.19-6.15-5.49-.94-11.06-1.42-16.58-2.15-.84-.11-1.66-.41-2.49-.62.04-.3.07-.59.11-.89,3.48,0,6.96.01,10.43,0,14.17-.05,27.57,4.61,41.37,6.83,11.57,1.86,23.1,4.04,34.72,5.5,8.86,1.11,17.84,1.24,26.76,1.97,4.16.34,8.3,1.02,12.43,1.67,5.86.94,11.71,2,17.56,3.01.08-.38.16-.76.25-1.14-10.46-2.2-20.92-4.4-31.38-6.6,0-.13,0-.26.01-.38,1.7,0,3.41-.08,5.11.02,1.77.11,3.54.41,5.3.62.09-.4.18-.79.27-1.19-1.98-.38-3.98-1.19-5.93-1.09-21.84,1.21-43.18-1.26-64.47-6.49-13.55-3.33-27.64-4.96-41.59-6.04-11.4-.88-22.96.65-34.42.22-7.71-.28-14.26,3.31-21.44,4.65-2.99.56-5.77,2.26-8.65,3.44l.05-.02Z"/>
  <path class="cls-1" d="M0,109.44c5.56-.55,11.17-.83,16.69-1.72,12.96-2.09,25.73-.54,37.72,1.22.95-.86,1.54-1.78,1.98-1.72,2.7.4,5.42.86,8.04,1.61,3.3.93,6.58,2.03,9.76,3.3,1.45.58,2.65,1.76,3.58,3.42-4.27-1.58-8.53-3.16-12.8-4.73-.08.13-.17.27-.25.4.5.47,1,.93,2.27,2.11-2.58,0-4.29.13-5.98-.02-11.2-1.02-22.38-2.81-33.58-2.95C18.29,110.24,9.14,112.07,0,113.04c0-1.2,0-2.4,0-3.6Z"/>
  <path class="cls-1" d="M0,113.76c19.48-.47,38.99-2.95,58.43.54,3.74.67,7.42,1.72,11.13,2.59-.1.5-.2,1-.31,1.5-2.93-.57-5.83-1.3-8.78-1.67-4.51-.56-9.05-1.04-13.58-1.24-7.87-.35-15.76-.71-23.64-.57-6.21.1-12.4.94-18.6,1.44-1.55.12-3.1.2-4.65.3,0-.96,0-1.92,0-2.88Z"/>
  <path class="cls-1" d="M418.32,205.92c-.41-.22-1.16-.42-1.18-.66-.2-3.91-1.54-7.96,1.18-11.58v12.24Z"/>
  <path class="cls-1" d="M418.32,192.24l-1.56-.22c.52-3.29,1.04-6.57,1.56-9.86v10.08Z"/>
  <path class="cls-1" d="M105.86,136.09c-4.04-1.28-8.13-2.43-12.11-3.88-4.01-1.46-7.92-3.22-11.87-4.85-.38-.18-.75-.35-1.12-.53-2.25-1.66-4.55-3.27-6.73-5.02-.85-.69-1.44-1.71-2.25-2.7.86-.4,1.15-.64,1.27-.58,5.1,2.84,10.11,5.85,15.29,8.55,4.72,2.46,9.64,4.54,14.42,6.87,1.11.54,2.07,1.41,3.1,2.13Z"/>
  <path class="cls-1" d="M256.94,205.25c-1.19.22-2.39.44-3.58.67-.2-.48-.4-.96-.6-1.43,1.33-.65,2.61-1.71,3.99-1.84,1.57-.15,3.6.16,2.9,2.8-.91-.06-1.81-.13-2.71-.19Z"/>
  <path class="cls-1" d="M150.24,43.84c3.65-6.52,9.68-9.55,16.37-11.22-5.98-2.09-11.84-4.14-17.7-6.17-.56-.19-1.19-.4-1.75-.31-5.59.85-10.51-1.67-15.71-2.93-4.34-1.05-8.85-1.37-13.39-1.27,2.58,1.83,5.13,3.7,7.74,5.49,4.01,2.75,8.41,3.19,13.09,2.24.78-.16,1.68.22,2.52.35-.59.76-1.02,1.83-1.79,2.22-3.61,1.82-7.37,2.28-10.97,0-2.82-1.79-5.6-3.67-8.21-5.76-2.55-2.04-4.82-4.19-8.56-3.58-1.31.21-2.8-.72-4.51-1.22,4.43,3.05,8.6,5.93,12.77,8.8-.29.42-.58.85-.86,1.27-1.22-.77-2.44-1.54-3.67-2.31-.15.16-.31.32-.46.47,4.09,3.77,9.25,6.9,11.98,11.48,2.65,4.46,6.67,4.21,10.25,5.84-2.64,2.58-5.41,3.05-7.74.91-4.16-3.81-7.95-8.04-12.15-11.8-5.15-4.61-10.54-8.97-15.93-13.31-.65-.52-1.96-.21-3.76-.35,3.34,1.95,5.79,3.38,8.23,4.81-.15.31-.31.62-.46.94-3.06-1.3-6.12-2.59-9.18-3.89l-.41.71c1.48.95,3.18,1.68,4.42,2.88,5.32,5.17,10.42,10.57,15.78,15.7,2.84,2.72,5.75,5.58,9.16,7.42,4.04,2.18,8.64,2.82,13.15.6,1.53-.75,3.19-1.22,4.88-1.52-4.07,3.84-8.8,4.93-14.37,4.5-7.67-.59-11.88-6.1-16.77-10.69-2.96-2.78-5.77-5.78-8.28-8.97-3.27-4.16-7.94-6.29-12.15-9.1-1.91-1.27-3.25-.76-2.54,2.93-2.37-1.91-3.93-3.17-5.53-4.45,5.68-2.74,10.8-5.35,16.04-7.71,5.75-2.59,11.81-3.75,18.09-2.56,1.12.21,2.39,2.24,3.01,1.99,5.66-2.26,10.77.38,16,1.55,2.16.48,4.14,1.75,6.55,2.82.97-.85,2.3-3.27,3.14,1.33.53,2.9,6.4,4.75,10.36,3.6-1.57-.51-3.14-1.02-4.7-1.53,1.48-2.85,2.13-2.97,4.64-1.39,1.14.72,2.5,1.4,3.81,1.52,8.15.74,16.36,1.04,24.48,2.04,5.09.62,10.06,2.21,15.09,3.36.03.41.06.82.09,1.23-1.54.24-3.1.78-4.6.66-1.69-.14-3.34-.86-5.41-.59.39.45.77.91,1.75,2.06-2.78.4-5.11.88-7.46,1.05-5.95.44-11.93.6-17.87,1.14-5.89.54-10.02,4.74-14.78,7.62-.57.35-1.12.73-1.68,1.1Z"/>
  <path class="cls-1" d="M77.83,36.68c1.38,1.49,2.78,2.98,4.15,4.48,7.56,8.31,14.9,16.83,22.73,24.88,7.93,8.15,17.85,10.51,28.9,8.16,7.47-1.59,14.53-4.12,20.18-9.59.45-.44,1.17-.61,2.31-.26-2.57,2.46-5.07,4.98-7.72,7.35-6.14,5.5-14.06,6.47-21.55,6.56-9.06.11-17.7-2.53-24.4-9.61-7.71-8.14-15.75-15.96-23.53-24.02-1.48-1.53-2.47-3.54-3.69-5.33-.39.24-.77.48-1.16.72.75-.52,1.5-1.04,2.24-1.56-.06-.25-.13-.49-.19-.74-1.69.35-3.37.69-5.06,1.04l-.47-1.05c2.3-1.23,4.6-2.45,6.89-3.68-.88-.42-2.02-.96-3.16-1.51.12-.41.25-.83.37-1.24,1.93.61,4.41.66,5.71,1.92,4.85,4.74,9.31,9.87,13.91,14.85,4.62,5.01,8.95,10.34,13.96,14.92,3.2,2.93,7.41,4.76,11.16,7.09.97.6,1.92,1.22,2.87,1.84-.18.43-.36.86-.54,1.28-3.13-1.11-6.84-1.5-9.28-3.46-5.64-4.54-10.82-9.69-15.9-14.88-5.83-5.97-11.34-12.26-17.02-18.39-.25-.27-.8-.26-1.21-.37-.17.2-.34.4-.51.6Z"/>
  <path class="cls-1" d="M149.98,57.01c-4.64,4.98-9.65,9.5-16.54,11.09-2.12.49-4.75.64-6.67-.17-7.1-2.98-13.45-7.26-18.29-13.36-1.43-1.81-1.93-4.33-3.09-6.39-2.64-4.67-5.43-9.26-8.15-13.88-.51-.87-.95-1.79-1.42-2.68l.9-.63c2.88,3.8,6.12,7.38,8.57,11.44,4.3,7.12,8.81,14,15.69,18.9,6.25,4.45,12.63,3.53,18.86-.08,2.37-1.38,4.47-3.23,6.81-4.67.83-.51,2.03-.43,3.06-.62.09.34.18.69.27,1.03Z"/>
  <path class="cls-1" d="M106.13,76.76c-15.76-7.05-28.23-18.59-40.38-31.06,2.16-2.35,4.48-2.61,7.21-1.19-.81.23-1.61.45-3.31.93,12.45,10.69,24.47,21,36.48,31.31Z"/>
  <path class="cls-1" d="M203.7,32.85c-15.39,4.89-30.78,9.78-46.21,14.69,1.62-2.9,3.98-5.39,7.37-6.31,8.88-2.4,17.82-4.55,26.76-6.71,3.92-.95,7.89-1.67,11.84-2.5l.24.83Z"/>
  <path class="cls-1" d="M198.01,42.48c-4.97-1.23-9.12,1.15-13.2,3.27-5.15,2.67-10.32,4.86-16.31,4.27,3.84-4.47,37.15-13.94,45.45-12.45-4.13,1.01-8.27,1.93-12.37,3.06-1.29.35-2.43,1.24-3.63,1.89,0,0,.06-.04.06-.04Z"/>
  <path class="cls-1" d="M222.59,30.35c6.36-1.89,12.65-4.05,19.1-5.55,2.82-.65,5.96.05,8.95.14.04.58.07,1.15.11,1.73-9.39,1.05-18.18,5.19-27.83,4.91-.11-.41-.22-.82-.33-1.23Z"/>
  <path class="cls-1" d="M143.9,55.63c-8.7,8.69-23.54,6.82-29.3-4.16,9.21,8.43,19.02,6.49,29.3,4.16Z"/>
  <path class="cls-1" d="M150.94,62.96c-3.3,6.81-20.49,12.51-26.83,8.41,1.17-.37,2.02-.94,2.78-.82,7.65,1.15,13.59-1.93,18.89-7.11,1.1-1.07,3.12-1.2,4.72-1.76.14.43.29.85.43,1.28Z"/>
  <path class="cls-1" d="M76.52,28.46c6.46-3.06,10.93,1.7,13.35,8.43-3.36-4.51-7.07-8.46-13.35-8.43Z"/>
  <path class="cls-1" d="M155.65,55.65c2.91-1.35,5.82-2.7,8.78-4.08.34,2.85-4,5.33-8.78,4.08Z"/>
  <path class="cls-1" d="M156.71,32c-3.59,2.37-6.67,4.41-9.76,6.45,1.46-3.98,5.46-6.85,9.76-6.45Z"/>
  <path class="cls-1" d="M175.64,51.82c1.38,1.39,1.25,2.6-.69,3.06-1.74.42-3.58.42-5.37.61-.12-.47-.24-.95-.36-1.42,2.16-.73,4.32-1.47,6.48-2.2,0,0-.07-.05-.07-.05Z"/>
  <path class="cls-1" d="M171.53,44.62c3.48-1.37,6.96-2.74,10.44-4.1.17.42.33.85.5,1.27l-10.48,3.98c-.15-.38-.3-.77-.46-1.15Z"/>
  <path class="cls-1" d="M159.84,136.47c.36-.23.71-.62,1.09-.66,9.01-.94,18.01-2.2,27.05-2.61,6.18-.28,12.43.54,18.64,1.05,18.01,1.48,36.02,2.97,54.01,4.67,4.38.42,8.66,1.8,13.02,2.54,10.85,1.82,21.67,3.92,32.59,5.19,17.11,1.99,34.34,2.97,51.41,5.23,7.76,1.02,15.23,4.13,22.86,6.19,5.9,1.59,11.89,2.84,17.74,4.6,1.9.57,3.45,2.31,5.17,3.51-.13.29-.27.58-.4.87-1.1-.19-2.23-.28-3.3-.58-12.34-3.49-24.6-7.25-37.02-10.42-5.75-1.47-11.79-1.78-17.69-2.65-2.1-.31-4.17-.95-6.27-1.06-1.8-.1-3.66.66-5.43.46-10.23-1.17-20.45-2.47-30.67-3.8-18.15-2.36-36.26-5.07-54.45-7.06-14.87-1.63-29.85-2.26-44.75-3.71-4.94-.48-9.72-2.61-14.67-3.1-4.44-.44-9,.28-13.5.62-5.06.37-10.12.89-15.18,1.34-.08-.2-.17-.4-.25-.59Z"/>
  <path class="cls-1" d="M194.13,115.77c-5.09.3-10.19.59-15.28.91-7.78.49-15.12,2.65-21.87,6.48-4.15,2.35-8.3,4.85-11.96,7.88-6.87,5.7-14.85,5.82-23.06,5.64-13.41-.3-24.33-7.31-35.71-13.1-3.34-1.7-6.62-3.54-9.92-5.31.18-.4.36-.81.54-1.21,3.75,1.51,7.5,3.03,11.26,4.51,9.25,3.65,17.54,9.71,27.65,11.2,10.74,1.59,20.45-1.23,29.97-6.26,8.32-4.4,16.95-8.56,25.93-11.22,6.23-1.84,13.27-.99,19.96-1.25.86-.03,1.74.53,2.61.81-.04.3-.07.6-.11.9Z"/>
  <path class="cls-1" d="M116.52,127.89c-5.12.4-9.53-1.61-14.03-3.91-13.08-6.7-25.22-15.42-39.53-19.49-6.4-1.82-13.16-2.4-19.76-3.49-2.19-.36-4.4-.53-6.61-.79-.02-.35-.04-.7-.06-1.06.79-.18,1.58-.53,2.36-.5,7.91.34,15.68,1.24,23.33,3.6,14.45,4.47,27.33,11.99,40.27,19.52,3.24,1.89,7.09,2.76,10.68,4.04,1.18.42,2.41.68,3.62,1.01-.09.35-.18.7-.27,1.05Z"/>
  <path class="cls-1" d="M192.03,82.28c-1.66.41-3.31.86-4.97,1.23-3.71.83-7.44,1.6-11.15,2.43-4.14.93-8.29,1.8-12.39,2.87-3.82,1-7.6,2.15-11.34,3.4-5.11,1.7-10.07,3.93-15.28,5.21-3.09.76-6.53.14-9.86.14,5.15-3.44,59.33-16.98,64.75-16.2.08.31.16.62.24.93Z"/>
  <path class="cls-1" d="M351.72,144.13c-22.8-2.13-45.59-4.27-68.39-6.4,3.83-2.73,60.13,2.88,68.39,6.4Z"/>
  <path class="cls-1" d="M249.28,130.7c-20.8-3.61-41.6-7.22-62.32-10.82,1.02-.12,2.37-.42,3.73-.43,12.83-.1,25.21,2.77,37.61,5.63,5.95,1.37,11.98,2.41,17.97,3.61,1.09.22,2.17.5,3.26.76-.08.42-.16.84-.24,1.25Z"/>
  <path class="cls-1" d="M164.75,89.86c-8.84,4.43-17.25,10.43-27.35,11.15-9.46.67-19.13.79-28.44-2.86,19.75,4.69,37.73-1.4,55.79-8.29Z"/>
  <path class="cls-1" d="M149.69,115.41c6.71-7.74,36.88-15.14,46.16-11.38-3.61.71-6.4,1.37-9.22,1.8-5.97.91-11.97,1.65-17.93,2.62-.8.13-1.38,1.29-2.19,1.74-1.21.68-2.53,1.18-3.83,1.66-.05.02-.45-.91-.75-1.53-4.03,1.67-8.13,3.38-12.24,5.09Z"/>
  <path class="cls-1" d="M119.33,127.83c6.94-1.5,13.78-2.41,20.22-4.53,6.36-2.1,12.32-5.41,18.6-7.88-4.87,7.66-31.29,15.96-38.81,12.41Z"/>
  <path class="cls-1" d="M124.29,98.4c-6.12-.53-12.24-1.08-18.37-1.56-2.3-.18-4.81.34-6.87-.42-3.02-1.11-5.73-3.09-8.57-4.69.15-.33.3-.67.45-1,11.15,2.23,22.29,4.45,33.44,6.68-.02.33-.05.66-.07,1Z"/>
  <path class="cls-1" d="M356.87,139.92c16.02,6.97,32.56,11.87,50.13,12.9-.01.5-.03,1-.04,1.5-1.67.1-3.39.5-5.01.26-10.91-1.61-21.42-4.58-31.77-8.5-4.61-1.75-9.15-3.38-13.3-6.16Z"/>
  <path class="cls-1" d="M153.37,107.99c-.01.65.25,1.63-.07,1.89-7.73,6.36-26.64,8.3-36.41,3.05,2.11.11,4.25.04,6.33.35,10.67,1.61,20.73-.11,30.2-5.31,0,0-.05.02-.05.02Z"/>
  <path class="cls-1" d="M297.69,133.4c10.78.89,21.55,1.77,33.05,2.72-3.29,2.41-28.85.77-33.18-1.51.04-.4.09-.8.13-1.21Z"/>
  <path class="cls-1" d="M216.19,129.61c-12.08-.59-24.15-1.19-36.6-1.8,3.71-2.49,31.23-1.34,36.6,1.8Z"/>
  <path class="cls-1" d="M270.37,122.64c-11.05-1.74-22.11-3.47-33.16-5.21.09-.59.19-1.18.28-1.76,10.99,1.96,21.99,3.92,32.98,5.89-.03.36-.07.72-.1,1.08Z"/>
  <path class="cls-1" d="M310.3,144.17c6.87.58,13.74,1.15,20.61,1.73-3.82,2.5-15.93,1.41-20.61-1.73Z"/>
  <path class="cls-1" d="M245.79,127c-7.11-1.64-14.22-3.28-21.34-4.92.13-.59.26-1.18.39-1.77,7.12,1.65,14.23,3.3,21.35,4.95-.13.58-.27,1.16-.4,1.74Z"/>
  <path class="cls-1" d="M301.68,93.6c5.04,1.2,10.08,2.4,15.12,3.6,1.39,1.93-.28,1.57-1.16,1.4-3.64-.71-7.24-1.6-10.88-2.28-1.25-.23-2.58-.04-4.85-.04.67-1.01,1.23-1.85,1.78-2.68Z"/>
  <path class="cls-1" d="M293.64,58.08c-8.62-.44-17.25-.89-25.87-1.33,0-.11.02-.22.03-.33h25.82c0,.56.02,1.11.02,1.67Z"/>
  <path class="cls-1" d="M273.43,77.91c-5.38-.75-10.77-1.5-16.15-2.24.05-.46.11-.92.16-1.39,5.55-.91,10.79,1,16.12,2.14-.04.5-.09.99-.13,1.49Z"/>
  <path class="cls-1" d="M247.43,135.91c-6.39-.58-12.78-1.17-19.18-1.75.05-.57.11-1.13.16-1.7,6.38.66,12.75,1.31,19.13,1.97-.04.49-.08.99-.12,1.48Z"/>
  <path class="cls-1" d="M348.32,233.45c3.12-.52,6.23-1.04,9.84-1.64-1.69,4.22-5.42,5.1-9.58,3.04-.09-.46-.17-.93-.26-1.39Z"/>
  <path class="cls-1" d="M411.85,234.56c-4.59,2.15-9.42-.42-14.07.55-.03-.46-.06-.92-.09-1.38l14.05-.7c.04.51.08,1.02.12,1.53Z"/>
  <path class="cls-1" d="M23.58,121.93c-2.09,3.1-5.06,2.55-7.72,3.04.03-4.04,2.36-5.03,7.72-3.04Z"/>
  <path class="cls-1" d="M302.45,90.02c-.83-.58-1.66-1.15-2.5-1.73.13-.34.25-.67.38-1.01,5.23,1.48,10.46,2.97,15.69,4.45-.08.36-.16.73-.24,1.09-4.46-.95-8.92-1.89-13.39-2.84,0,0,.06.04.06.04Z"/>
  <path class="cls-1" d="M235.51,57.55c5.03-1.19,10.07-2.38,15.1-3.58.11.49.23.98.34,1.46-5.08,1.17-10.15,2.34-15.23,3.51-.07-.46-.14-.93-.21-1.39Z"/>
  <path class="cls-1" d="M337.61,232.56c1.33-.19,2.67-.38,4.22-.59-.15-.68-.31-1.36-.64-2.85,2.3,1.46,3.96,2.52,5.62,3.58-.1.3-.2.6-.3.9h-8.84c-.02-.35-.04-.69-.06-1.04Z"/>
  <path class="cls-1" d="M118.74,122.39c1.48.28,2.96.63,4.45.82,1.33.17,2.68.18,4.02.26l-.04,1.12h-10.44c-.12-.22-.25-.45-.37-.67.82-.5,1.63-1,2.45-1.5,0,0-.07-.04-.07-.04Z"/>
  <path class="cls-1" d="M315.9,114.34h-11.6c0-.32,0-.64,0-.96h11.6v.96Z"/>
  <path class="cls-1" d="M77.43,98.6c-4.31-1.34-8.61-2.68-12.92-4.02.13-.43.26-.85.39-1.28,4.28,1.37,8.55,2.73,12.83,4.1l-.3,1.2Z"/>
  <path class="cls-1" d="M341.28,136.22c-4.58-.67-9.17-1.34-13.75-2.01.07-.44.13-.88.2-1.31,4.58.73,9.15,1.45,13.73,2.18-.06.38-.12.76-.18,1.14Z"/>
  <path class="cls-1" d="M101.19,118.3c3.15,1.24,6.29,2.49,9.44,3.73l-.7,1.6c-3.08-1.36-6.17-2.71-9.25-4.07.17-.42.35-.85.52-1.27Z"/>
  <path class="cls-1" d="M330.26,233.78h-7.98q2.64-2.89,7.98,0Z"/>
  <path class="cls-1" d="M384.45,155.71c-4.3-1.02-8.6-2.03-12.9-3.05l.26-1.11c4.28,1.01,8.56,2.02,12.84,3.03-.06.37-.13.75-.19,1.12Z"/>
  <path class="cls-1" d="M390.69,202.08c1.15.7,2.39,1.32,3.39,2.2.18.16-.58,1.39-.9,2.13-1.16-.83-2.32-1.67-3.49-2.5.33-.61.67-1.21,1-1.82Z"/>
  <path class="cls-1" d="M167.75,121.68c4.19-.53,8.37-1.06,12.56-1.6.05.39.1.79.15,1.18-4.19.48-8.39.95-12.58,1.43-.04-.34-.09-.67-.13-1.01Z"/>
  <path class="cls-1" d="M90.02,224.63c-1.83-.58-3.66-1.17-5.48-1.75l.16-1.3c1.46,0,3.03-.31,4.33.14.58.2.64,1.92.94,2.95,0,0,.05-.04.05-.04Z"/>
  <path class="cls-1" d="M256.98,213.09c.43.39.85.77,1.9,1.72h-8.06c-.03-.15-.06-.31-.09-.46,2.1-.41,4.2-.82,6.3-1.23,0,0-.06-.03-.06-.03Z"/>
  <path class="cls-1" d="M180.3,226.09c1.59-2.53,3.47-1.71,5.38-.55.04.43.09.87.13,1.3-1.76.17-3.52.34-5.27.51-.08-.42-.16-.83-.23-1.25Z"/>
  <path class="cls-1" d="M343.46,180.75c1.06-2.13,2.58-3.32,5.37-2.46-.32,1.33-.61,2.55-.88,3.71-1.6-.46-3.07-.88-4.53-1.3,0,0,.04.04.04.04Z"/>
</svg>